<svg height="72" viewBox="0 0 72 72" width="72" xmlns="http://www.w3.org/2000/svg" xmlns:xlink="http://www.w3.org/1999/xlink"><clipPath id="a"><path d="m24.883 49.291c0-6.14 4.977-11.117 11.117-11.117 6.139 0 11.116 4.978 11.116 11.117"/></clipPath><path d="m34.993 37.845 1.985 5.535-22.246 7.979-1.985-5.535z" fill="#464343"/><path d="m34.657 37.844.997 2.766-22.208 8.008-.997-2.766z" fill="#bbbebf"/><path d="m62.445 28.836 2.561 5.293-22.8 11.034-2.561-5.293z" fill="#464343"/><path d="m62.571 28.645 1.272 2.651-22.511 10.799-1.272-2.651z" fill="#bbbebf"/><path d="m5.098 45.484-1.127-2.566 5.6-2.46 3.587 8.165c-3.094 1.358-6.701-.047-8.06-3.139zm62.398-22.365-1.143-2.561-5.584 2.492 3.634 8.145c3.085-1.376 4.47-4.992 3.093-8.076z" fill="#fec8af"/><path d="m47.049 48.829v3.92c0 1.355-2.207 4.548-6.98 4.548h-8.139c-5.316 0-6.979-3.192-6.979-4.548v-3.92" fill="#bbbebf"/><path d="m45.092 49.219v3.56c0 1.23-1.816 4.13-5.744 4.13h-6.698c-4.374 0-5.742-2.899-5.742-4.13v-3.56" fill="#efefef"/><path d="m26.604 70.371c2.028-2.029 5.319-2.029 7.347 0z" fill="#464343"/><path d="m29.921 56.304 4.9.05-.036 3.509-4.9-.05z" fill="#efefef"/><path d="m32.87 56.873 2.057.024-.035 2.953-2.057-.024z" fill="#bbbebf"/><path d="m33.951 70.371h-3.73l.896-9.889h2.444z" fill="#464343"/><path d="m34.186 66.631c0 .649-.525 1.176-1.176 1.176h-1.904c-.648 0-1.176-.526-1.176-1.176v-1.6c0-.649.527-1.176 1.176-1.176h1.904c.65 0 1.176.526 1.176 1.176zm7.87-10.328.035 3.51-4.9.049-.035-3.51z" fill="#efefef"/><path d="m37.075 56.873 2.057.024-.035 2.953-2.057-.024z" fill="#bbbebf"/><path d="m45.263 70.371c-2.029-2.029-5.318-2.029-7.347 0zm-7.347 0h3.73l-.895-9.889h-2.443z" fill="#464343"/><path d="m41.894 66.631c0 .649-.526 1.176-1.176 1.176h-1.903c-.65 0-1.177-.526-1.177-1.176v-1.6c0-.649.526-1.176 1.177-1.176h1.903c.649 0 1.176.526 1.176 1.176z" fill="#efefef"/><path d="m33.01 63.855c.65 0 1.176.526 1.176 1.176v1.6c0 .649-.525 1.176-1.176 1.176m5.804 0c-.65 0-1.177-.526-1.177-1.176v-1.6c0-.649.526-1.176 1.177-1.176" fill="#bbbebf"/><path d="m33.945 31.714h3.92v4.704h-3.92z" fill="#ec5829"/><path d="m34.771 63.088c0 .54-.438.978-.978.978h-3.258c-.539 0-.977-.438-.977-.978v-2.434c0-.54.438-.978.977-.978h3.258c.54 0 .978.438.978.978zm2.327 0c0 .54.438.978.977.978h3.258c.539 0 .977-.438.977-.978v-2.434c0-.54-.438-.978-.977-.978h-3.258c-.539 0-.977.438-.977.978z" fill="#464343"/><path d="m29.42 61.137h5.489v1.47h-5.489zm7.539 0h5.488v1.47h-5.488z" fill="#efefef"/><circle cx="35.702" cy="3.649" fill="#464343" r="2.021"/><circle cx="24.692" cy="20.059" fill="#fd9767" r="2.638"/><circle cx="47.308" cy="20.059" fill="#fd9767" r="2.638"/><path d="m47.246 16.169c0-6.211-5.035-11.246-11.246-11.246-6.212 0-11.248 5.035-11.248 11.246v10.497c0 6.212 6.404 9.308 11.248 9.308 4.843 0 11.246-3.096 11.246-9.308z" fill="#fec8af"/><circle cx="29.725" cy="19.105" fill="#feeae0" r="5.145"/><circle cx="42.383" cy="19.105" fill="#feeae0" r="5.145"/><path d="m30.791 12.551h10.184c3.205 0 4.903 1.03 5.766 2.357h.383c0-7.339-3.148-12.315-5.246-12.315h-11.958c-2.1 0-5.247 4.977-5.247 12.315h.353c.861-1.327 2.56-2.357 5.765-2.357z" fill="#bbbebf"/><path d="m44.573 13.607h.297c0-5.673-2.434-9.519-4.056-9.519h-6.028c-1.622 0-4.056 3.846-4.056 9.519h.273c.666-1.026 12.904-1.026 13.57 0z" fill="#efefef"/><path d="m35.118 2.68h.587v9.081h-.587zm.972 0h.588v.526h-.588zm.588 7.408h-.588v-1.148h.588zm0-2.294h-.588v-1.148h.588zm0-2.294h-.588v-1.147h.588zm-.588 5.734h.588v.526h-.588z" fill="#bbbebf"/><path d="m27.523 20.8h16.951v.587h-16.951z" fill="#fec8af"/><path d="m46.931 16.208c-.682-1.568-2.538-2.363-5.517-2.363h-11.062c-2.979 0-4.836.795-5.518 2.363l-2.373-1.029c.777-1.789 2.777-3.922 7.891-3.922h11.062c5.113 0 7.113 2.133 7.891 3.922z" fill="#464343"/><path d="m37.543 23.201h-3.086l.742-4.764h1.602z" fill="#ec5829"/><path d="m33.258 36.418h5.293v3.969h-5.293zm-8.375 12.873c0-6.14 4.977-11.117 11.117-11.117 6.139 0 11.116 4.978 11.116 11.117" fill="#f2f2f2"/><g clip-path="url(#a)" fill="#464343"><path d="m24.833 34.022h2.94v19.86h-2.94zm6.464 0h2.941v19.86h-2.941zm6.465 0h2.94v19.86h-2.94zm6.465 0h2.94v19.86h-2.94z"/></g><path d="m35.022 39.063h-2.645l.881-2.645h2.646zm1.764 0h2.646l-.881-2.645h-2.647zm-7.116-14.175c-3.188 0-5.781-2.595-5.781-5.782s2.594-5.782 5.781-5.782c3.188 0 5.782 2.595 5.782 5.782s-2.594 5.782-5.782 5.782zm0-10.29c-2.484 0-4.508 2.022-4.508 4.508s2.023 4.508 4.508 4.508c2.486 0 4.51-2.022 4.51-4.508s-2.024-4.508-4.51-4.508zm12.659 10.29c-3.188 0-5.782-2.595-5.782-5.782s2.594-5.782 5.782-5.782 5.782 2.595 5.782 5.782-2.593 5.782-5.782 5.782zm0-10.29c-2.486 0-4.507 2.022-4.507 4.508s2.021 4.508 4.507 4.508 4.508-2.022 4.508-4.508-2.022-4.508-4.508-4.508zm-7.444 3.528h2.367v.588h-2.367zm-12.49-.999h2.369v.588h-2.369zm24.841 0h2.369v.588h-2.369zm-22.45 31.749h22.428v1.565h-22.428z" fill="#464343"/><path d="m28.989 48.115h.735v2.939h-.735zm13.286 0h.735v2.939h-.735z" fill="#efefef"/><path d="m37.371 50.957h-2.743c-.189 0-.343-.153-.343-.343v-1.911c0-.189.153-.343.343-.343h2.743c.19 0 .344.153.344.343v1.911c0 .19-.153.343-.344.343zm-2.399-.686h2.058v-1.225h-2.058z" fill="#bbbebf"/><path d="m38.678 21.981c0 .827-.67 1.498-1.498 1.498h-2.36c-.827 0-1.497-.671-1.497-1.498s.67-1.498 1.497-1.498h2.36c.828 0 1.498.671 1.498 1.498z" fill="#ec5829"/><path d="m41.291 35.964h-4.57v-2.156h4.57c1.307 0 2.371-1.063 2.371-2.372h2.156c0 2.497-2.031 4.528-4.527 4.528z" fill="#fec8af"/><path d="m33.298 31.436v-2.773c0-1.905 1.544-3.45 3.449-3.45h4.544c1.904 0 3.449 1.545 3.449 3.45v2.773c0 1.905-1.545 3.45-3.449 3.45h-4.544" fill="#880114"/><path d="m40.514 30.028c1.16-1.271.088-3.55-1.398-3.055-1.486.496 2.477 1.734 0 2.229-2.479.496-1.734-.99-1.486-1.733.247-.743-3.296.938-1.686 3.044 1.61 2.107 3.962.181 4.57-.485z" fill="#4c0000"/><path d="m38.985 34.005h2.849c.99 0 1.65-1.362.494-1.858-1.154-.496-3.343 1.858-3.343 1.858z" fill="#ef3b24"/><path d="m32.52 19.918c-.162 0-.293-.131-.293-.294 0-.767-.623-1.391-1.391-1.391-.766 0-1.391.624-1.391 1.391 0 .163-.132.294-.293.294-.162 0-.295-.131-.295-.294 0-1.091.888-1.979 1.979-1.979 1.09 0 1.978.888 1.978 1.979-.001.163-.132.294-.294.294zm10.328 0c-.162 0-.295-.131-.295-.294 0-.767-.623-1.391-1.389-1.391-.768 0-1.391.624-1.391 1.391 0 .163-.131.294-.295.294-.162 0-.293-.131-.293-.294 0-1.091.887-1.979 1.979-1.979 1.09 0 1.977.888 1.977 1.979 0 .163-.132.294-.293.294z" fill="#606060"/><path d="m33.762 35.093c-.166 0-.331-.062-.457-.189l-.632-.632c-.253-.253-.254-.662-.001-.915.252-.253.663-.253.914 0l.633.632c.254.253.254.662 0 .915-.125.125-.291.189-.457.189z" fill="#fd9767"/><path d="m36.556 23.271.415.415-2.736 2.736-.415-.415z" fill="#ec5829"/></svg>