<svg enable-background="new 0 0 72 72" viewBox="0 0 72 72" xmlns="http://www.w3.org/2000/svg" xmlns:xlink="http://www.w3.org/1999/xlink"><linearGradient id="a"><stop offset=".01" stop-color="#9dbbc3"/><stop offset=".198" stop-color="#a1bec6"/><stop offset=".403" stop-color="#afc7ce"/><stop offset=".617" stop-color="#c4d6db"/><stop offset=".834" stop-color="#e3ebee"/><stop offset="1" stop-color="#fff"/></linearGradient><linearGradient id="b" gradientUnits="userSpaceOnUse" x1="30.332" x2="30.332" xlink:href="#a" y1="62.008" y2="48.719"/><linearGradient id="c" gradientTransform="matrix(-1 0 0 1 587 0)" gradientUnits="userSpaceOnUse" x1="545.386" x2="545.386" xlink:href="#a" y1="61.682" y2="48.496"/><linearGradient id="d"><stop offset=".507" stop-color="#d68a6e"/><stop offset=".761" stop-color="#d88c6f" stop-opacity=".485"/><stop offset=".852" stop-color="#dc9273" stop-opacity=".3"/><stop offset=".917" stop-color="#e59e7b" stop-opacity=".168"/><stop offset=".969" stop-color="#f1af86" stop-opacity=".061"/><stop offset="1" stop-color="#fbbd8e" stop-opacity="0"/></linearGradient><linearGradient id="e" gradientTransform="matrix(1 -.00827972 .00827972 1 .0687 -.3115)" gradientUnits="userSpaceOnUse" x1="17.058" x2="22.061" xlink:href="#d" y1="29.694" y2="29.694"/><linearGradient id="f"><stop offset="0"/><stop offset=".374" stop-color="#020101" stop-opacity=".626"/><stop offset=".508" stop-color="#090705" stop-opacity=".492"/><stop offset=".604" stop-color="#140f0c" stop-opacity=".396"/><stop offset=".682" stop-color="#251c15" stop-opacity=".318"/><stop offset=".748" stop-color="#3b2d22" stop-opacity=".252"/><stop offset=".807" stop-color="#574131" stop-opacity=".193"/><stop offset=".861" stop-color="#775943" stop-opacity=".14"/><stop offset=".909" stop-color="#9d7659" stop-opacity=".09"/><stop offset=".955" stop-color="#c89671" stop-opacity=".045"/><stop offset=".995" stop-color="#f5b88b" stop-opacity=".005"/><stop offset="1" stop-color="#fbbd8e" stop-opacity="0"/></linearGradient><linearGradient id="g" gradientUnits="userSpaceOnUse" x1="15.956" x2="24.192" xlink:href="#f" y1="29.471" y2="29.471"/><linearGradient id="h" gradientTransform="matrix(-1 -.00827972 -.00827972 1 98.0767 -.3115)" gradientUnits="userSpaceOnUse" x1="43.711" x2="48.715" xlink:href="#d" y1="30.012" y2="30.012"/><linearGradient id="i" gradientTransform="matrix(-1 0 0 1 98.1454 0)" gradientUnits="userSpaceOnUse" x1="42.313" x2="50.549" xlink:href="#f" y1="29.471" y2="29.471"/><linearGradient id="j" gradientUnits="userSpaceOnUse" x1="20.106" x2="51.781" xlink:href="#f" y1="29.385" y2="29.385"/><linearGradient id="k" gradientUnits="userSpaceOnUse" x1="36.009" x2="36.009" y1="52.627" y2="6.539"><stop offset="0"/><stop offset=".086" stop-color="#080605" stop-opacity=".914"/><stop offset=".221" stop-color="#1e1711" stop-opacity=".779"/><stop offset=".387" stop-color="#423225" stop-opacity=".613"/><stop offset=".578" stop-color="#745742" stop-opacity=".422"/><stop offset=".789" stop-color="#b48766" stop-opacity=".211"/><stop offset="1" stop-color="#fbbd8e" stop-opacity="0"/></linearGradient><linearGradient id="l" gradientUnits="userSpaceOnUse" x1="36.603" x2="36.603" y1="8.995" y2="5.076"><stop offset="0" stop-color="#fbbd8e" stop-opacity="0"/><stop offset=".056" stop-color="#d8a27a" stop-opacity=".08"/><stop offset=".153" stop-color="#9f785a" stop-opacity=".219"/><stop offset=".251" stop-color="#6f533f" stop-opacity=".359"/><stop offset=".347" stop-color="#473528" stop-opacity=".497"/><stop offset=".441" stop-color="#281e17" stop-opacity=".631"/><stop offset=".532" stop-color="#120d0a" stop-opacity=".762"/><stop offset=".619" stop-color="#050303" stop-opacity=".887"/><stop offset=".698"/></linearGradient><linearGradient id="m"><stop offset="0" stop-color="#fbbd8e" stop-opacity="0"/><stop offset=".001" stop-color="#f5b98b" stop-opacity=".005"/><stop offset=".01" stop-color="#c79671" stop-opacity=".045"/><stop offset=".02" stop-color="#9d7659" stop-opacity=".09"/><stop offset=".031" stop-color="#775a43" stop-opacity=".139"/><stop offset=".043" stop-color="#574131" stop-opacity=".192"/><stop offset=".056" stop-color="#3b2d22" stop-opacity=".251"/><stop offset=".071" stop-color="#251c15" stop-opacity=".318"/><stop offset=".088" stop-color="#140f0c" stop-opacity=".396"/><stop offset=".109" stop-color="#090705" stop-opacity=".491"/><stop offset=".139" stop-color="#020101" stop-opacity=".626"/><stop offset=".223"/><stop offset="1"/></linearGradient><linearGradient id="n" gradientUnits="userSpaceOnUse" x1="22.804" x2="22.804" xlink:href="#m" y1="27.992" y2="5.807"/><linearGradient id="o" gradientTransform="matrix(-1 0 0 1 98.1454 0)" gradientUnits="userSpaceOnUse" x1="48.868" x2="48.868" xlink:href="#m" y1="27.992" y2="4.836"/><linearGradient id="p"><stop offset="0" stop-color="#fbbd8e" stop-opacity="0"/><stop offset=".031" stop-color="#f1af86" stop-opacity=".061"/><stop offset=".083" stop-color="#e59e7b" stop-opacity=".168"/><stop offset=".148" stop-color="#dc9273" stop-opacity=".3"/><stop offset=".239" stop-color="#d88c6f" stop-opacity=".485"/><stop offset=".492" stop-color="#d68a6e"/><stop offset=".754" stop-color="#d88c6f" stop-opacity=".485"/><stop offset=".848" stop-color="#dc9273" stop-opacity=".3"/><stop offset=".915" stop-color="#e59e7b" stop-opacity=".168"/><stop offset=".969" stop-color="#f1af86" stop-opacity=".061"/><stop offset="1" stop-color="#fbbd8e" stop-opacity="0"/></linearGradient><linearGradient id="q" gradientUnits="userSpaceOnUse" x1="27.871" x2="27.871" xlink:href="#p" y1="37.977" y2="34.224"/><linearGradient id="r" gradientTransform="matrix(-1 0 0 1 587 0)" gradientUnits="userSpaceOnUse" x1="542.518" x2="542.518" xlink:href="#p" y1="37.977" y2="34.224"/><linearGradient id="s" gradientUnits="userSpaceOnUse" x1="33.952" x2="38.414" y1="43.704" y2="43.327"><stop offset=".022" stop-color="#e95072" stop-opacity="0"/><stop offset=".032" stop-color="#eb6482" stop-opacity=".024"/><stop offset=".055" stop-color="#f0889f" stop-opacity=".075"/><stop offset=".081" stop-color="#f4a8b9" stop-opacity=".132"/><stop offset=".11" stop-color="#f8c4cf" stop-opacity=".195"/><stop offset=".142" stop-color="#fadae1" stop-opacity=".267"/><stop offset=".18" stop-color="#fcebee" stop-opacity=".35"/><stop offset=".227" stop-color="#fef6f8" stop-opacity=".453"/><stop offset=".293" stop-color="#fffdfd" stop-opacity=".598"/><stop offset=".475" stop-color="#fff"/><stop offset=".686" stop-color="#fffdfd" stop-opacity=".598"/><stop offset=".762" stop-color="#fef6f8" stop-opacity=".453"/><stop offset=".816" stop-color="#fcebee" stop-opacity=".35"/><stop offset=".86" stop-color="#fadae1" stop-opacity=".267"/><stop offset=".897" stop-color="#f8c4cf" stop-opacity=".195"/><stop offset=".931" stop-color="#f4a8b9" stop-opacity=".132"/><stop offset=".961" stop-color="#f0889f" stop-opacity=".075"/><stop offset=".988" stop-color="#eb6482" stop-opacity=".024"/><stop offset="1" stop-color="#e95072" stop-opacity="0"/></linearGradient><linearGradient id="t"><stop offset="0" stop-color="#ff7bac" stop-opacity="0"/><stop offset=".007" stop-color="#fb75a3" stop-opacity=".015"/><stop offset=".036" stop-color="#eb6084" stop-opacity=".074"/><stop offset=".069" stop-color="#de4e68" stop-opacity=".142"/><stop offset=".105" stop-color="#d34052" stop-opacity=".218"/><stop offset=".148" stop-color="#cb3541" stop-opacity=".307"/><stop offset=".202" stop-color="#c52d36" stop-opacity=".417"/><stop offset=".276" stop-color="#c2282f" stop-opacity=".571"/><stop offset=".484" stop-color="#c1272d"/><stop offset=".689" stop-color="#c2282f" stop-opacity=".603"/><stop offset=".771" stop-color="#c52d36" stop-opacity=".444"/><stop offset=".831" stop-color="#cb3542" stop-opacity=".328"/><stop offset=".88" stop-color="#d44154" stop-opacity=".232"/><stop offset=".923" stop-color="#df506a" stop-opacity=".149"/><stop offset=".961" stop-color="#ed6286" stop-opacity=".075"/><stop offset=".995" stop-color="#fc77a7" stop-opacity=".01"/><stop offset="1" stop-color="#ff7bac" stop-opacity="0"/></linearGradient><linearGradient id="u" gradientUnits="userSpaceOnUse" x1="33.273" x2="39.016" xlink:href="#t" y1="42.698" y2="42.698"/><linearGradient id="v" gradientUnits="userSpaceOnUse" x1="28.007" x2="44.452" xlink:href="#t" y1="37.354" y2="37.354"/><linearGradient id="w"><stop offset="0" stop-color="#fbbd8e" stop-opacity="0"/><stop offset=".003" stop-color="#f5b88b" stop-opacity=".005"/><stop offset=".026" stop-color="#c89671" stop-opacity=".045"/><stop offset=".052" stop-color="#9d7659" stop-opacity=".09"/><stop offset=".08" stop-color="#775943" stop-opacity=".14"/><stop offset=".111" stop-color="#574131" stop-opacity=".193"/><stop offset=".145" stop-color="#3b2d22" stop-opacity=".252"/><stop offset=".183" stop-color="#251c15" stop-opacity=".318"/><stop offset=".228" stop-color="#140f0c" stop-opacity=".396"/><stop offset=".283" stop-color="#090705" stop-opacity=".492"/><stop offset=".361" stop-color="#020101" stop-opacity=".626"/><stop offset=".577"/></linearGradient><linearGradient id="x" gradientTransform="matrix(.9894 -.1449 .1449 .9894 1.7278 -42.2898)" gradientUnits="userSpaceOnUse" x1="12.064" x2="24.805" xlink:href="#w" y1="68.57" y2="68.57"/><linearGradient id="y" gradientTransform="matrix(-.9894 -.1449 -.1449 .9894 -501.484 -42.2898)" gradientUnits="userSpaceOnUse" x1="-553.553" x2="-541.119" xlink:href="#w" y1="-14.385" y2="-14.385"/><linearGradient id="z"><stop offset="0" stop-color="#fbbd8e" stop-opacity="0"/><stop offset=".026" stop-color="#f1af86" stop-opacity=".061"/><stop offset=".072" stop-color="#e59e7b" stop-opacity=".168"/><stop offset=".129" stop-color="#dc9273" stop-opacity=".3"/><stop offset=".209" stop-color="#d88c6f" stop-opacity=".485"/><stop offset=".43" stop-color="#d68a6e"/><stop offset=".724" stop-color="#d88c6f" stop-opacity=".485"/><stop offset=".829" stop-color="#dc9273" stop-opacity=".3"/><stop offset=".905" stop-color="#e59e7b" stop-opacity=".168"/><stop offset=".965" stop-color="#f1af86" stop-opacity=".061"/><stop offset="1" stop-color="#fbbd8e" stop-opacity="0"/></linearGradient><linearGradient id="A" gradientUnits="userSpaceOnUse" x1="21.922" x2="33.654" xlink:href="#z" y1="25.966" y2="24.248"/><linearGradient id="B" gradientTransform="matrix(-1 0 0 1 -1256.1266 0)" gradientUnits="userSpaceOnUse" x1="-1306.142" x2="-1294.475" xlink:href="#z" y1="25.919" y2="24.21"/><linearGradient id="C"><stop offset="0" stop-color="#fbbd8e" stop-opacity="0"/><stop offset=".103" stop-color="#f4b388" stop-opacity=".159"/><stop offset=".449" stop-color="#de9575" stop-opacity=".696"/><stop offset=".646" stop-color="#d68a6e"/></linearGradient><linearGradient id="D" gradientTransform="matrix(-1 0 0 1 -1242 0)" gradientUnits="userSpaceOnUse" x1="-1291.564" x2="-1287.997" xlink:href="#C" y1="26.168" y2="25.645"/><clipPath id="E"><path d="m33.84 25.85s-7.07.11-8.91.97c0 0 4.48-4.4 8.91-.97z"/></clipPath><clipPath id="F"><path d="m37.75 25.85s7.07.11 8.91.97c0 0-4.48-4.4-8.91-.97z"/></clipPath><linearGradient id="G"><stop offset=".001"/><stop offset=".374" stop-color="#020101" stop-opacity=".626"/><stop offset=".509" stop-color="#090705" stop-opacity=".492"/><stop offset=".605" stop-color="#140f0c" stop-opacity=".396"/><stop offset=".682" stop-color="#251c15" stop-opacity=".318"/><stop offset=".749" stop-color="#3b2d22" stop-opacity=".252"/><stop offset=".807" stop-color="#574131" stop-opacity=".193"/><stop offset=".861" stop-color="#775943" stop-opacity=".14"/><stop offset=".91" stop-color="#9d7659" stop-opacity=".09"/><stop offset=".955" stop-color="#c89671" stop-opacity=".045"/><stop offset=".995" stop-color="#f5b88b" stop-opacity=".005"/><stop offset="1" stop-color="#fbbd8e" stop-opacity="0"/></linearGradient><linearGradient id="H" gradientUnits="userSpaceOnUse" x1="25.347" x2="33.56" xlink:href="#G" y1="25.968" y2="24.765"/><linearGradient id="I" gradientTransform="matrix(-1 0 0 1 -1237.6583 0)" gradientUnits="userSpaceOnUse" x1="-1284.138" x2="-1275.924" xlink:href="#G" y1="25.968" y2="24.765"/><linearGradient id="J"><stop offset="0" stop-color="#fbbd8e" stop-opacity="0"/><stop offset=".031" stop-color="#f1af86" stop-opacity=".061"/><stop offset=".085" stop-color="#e59e7b" stop-opacity=".168"/><stop offset=".152" stop-color="#dc9273" stop-opacity=".3"/><stop offset=".246" stop-color="#d88c6f" stop-opacity=".485"/><stop offset=".507" stop-color="#d68a6e"/><stop offset=".761" stop-color="#d88c6f" stop-opacity=".485"/><stop offset=".852" stop-color="#dc9273" stop-opacity=".3"/><stop offset=".917" stop-color="#e59e7b" stop-opacity=".168"/><stop offset=".969" stop-color="#f1af86" stop-opacity=".061"/><stop offset="1" stop-color="#fbbd8e" stop-opacity="0"/></linearGradient><linearGradient id="K" gradientTransform="matrix(-1 0 0 1 -1242 0)" gradientUnits="userSpaceOnUse" x1="-1292.026" x2="-1280.022" xlink:href="#J" y1="27.537" y2="25.779"/><linearGradient id="L" gradientUnits="userSpaceOnUse" x1="21.795" x2="33.871" xlink:href="#J" y1="27.553" y2="25.785"/><linearGradient id="M" gradientTransform="matrix(-.9894 .1449 .1449 .9894 581.2438 -127.1626)" gradientUnits="userSpaceOnUse" x1="572.731" x2="563.643" xlink:href="#C" y1="72.059" y2="72.059"/><linearGradient id="N" gradientTransform="matrix(.9894 .1449 -.1449 .9894 -1819.9503 -127.1626)" gradientUnits="userSpaceOnUse" x1="1869.241" x2="1860.152" xlink:href="#C" y1="-117.821" y2="-117.821"/><linearGradient id="O" gradientUnits="userSpaceOnUse" x1="35.954" x2="35.954" y1="34.815" y2="20.593"><stop offset="0"/><stop offset=".105" stop-color="#050403" stop-opacity=".893"/><stop offset=".227" stop-color="#130e0b" stop-opacity=".768"/><stop offset=".358" stop-color="#2a2018" stop-opacity=".635"/><stop offset=".495" stop-color="#4b392b" stop-opacity=".495"/><stop offset=".637" stop-color="#765843" stop-opacity=".35"/><stop offset=".784" stop-color="#a97f60" stop-opacity=".201"/><stop offset=".93" stop-color="#e5ac82" stop-opacity=".051"/><stop offset=".981" stop-color="#fbbd8e" stop-opacity="0"/></linearGradient><linearGradient id="P" gradientUnits="userSpaceOnUse" x1="35.973" x2="35.973" y1="36.553" y2="33.242"><stop offset="0"/><stop offset=".362" stop-color="#020101" stop-opacity=".626"/><stop offset=".492" stop-color="#090705" stop-opacity=".492"/><stop offset=".585" stop-color="#140f0c" stop-opacity=".396"/><stop offset=".66" stop-color="#251c15" stop-opacity=".318"/><stop offset=".724" stop-color="#3b2d22" stop-opacity=".252"/><stop offset=".781" stop-color="#574131" stop-opacity=".193"/><stop offset=".833" stop-color="#775943" stop-opacity=".14"/><stop offset=".88" stop-color="#9d7659" stop-opacity=".09"/><stop offset=".924" stop-color="#c89671" stop-opacity=".045"/><stop offset=".963" stop-color="#f5b88b" stop-opacity=".005"/><stop offset=".968" stop-color="#fbbd8e" stop-opacity="0"/></linearGradient><g fill="#fbbd8e"><path d="m12.64 49.5c-.42.31-.99.18-1.28-.27l-4.62-7.51c-.28-.46-.17-1.08.25-1.39.42-.31.99-.18 1.28.27l4.62 7.51c.28.46.17 1.09-.25 1.39z"/><path d="m12.57 48.96v10.94s9.28-4.26 0-10.94z"/><path d="m20.43 50.43h-.03c-.43 0-.78-.35-.78-.78l-.01-6.69c0-.43.35-.78.78-.78h.03c.43 0 .78.35.78.78l.01 6.69c0 .43-.35.78-.78.78z"/></g><path d="m22.75 51.43-4.68 3.37c-.55.39-1.29.23-1.65-.36l-7.31-11.96c-.36-.59-.21-1.4.33-1.79l4.68-3.37c.55-.39 1.29-.23 1.65.36l7.31 11.96c.36.59.21 1.4-.33 1.79z" fill="#fff"/><path d="m17.41 55.22c-.09 0-.17-.01-.26-.03-.38-.08-.7-.31-.91-.65l-7.3-11.95c-.42-.68-.24-1.61.39-2.06l4.68-3.37c.3-.22.67-.3 1.03-.23.38.08.7.31.91.65l7.31 11.96c.42.68.24 1.61-.39 2.06l-4.68 3.37c-.24.16-.5.25-.78.25zm-2.63-17.92c-.19 0-.38.06-.54.18l-4.68 3.37c-.46.33-.59 1.02-.28 1.52l7.31 11.96c.15.24.38.41.64.46.25.05.5-.01.72-.16l4.68-3.37c.46-.33.59-1.02.28-1.52l-7.31-11.96c-.15-.24-.38-.41-.64-.46-.06-.01-.12-.02-.18-.02z" fill="gray"/><path d="m22.08 48.96-5.2 3.75-6.28-10.28 5.2-3.75z"/><path d="m19.75 52.79c-.04 0-.09 0-.13-.01-.19-.04-.36-.16-.46-.33-.21-.35-.12-.82.2-1.06.16-.11.34-.15.53-.12.19.04.36.16.46.33.21.35.12.82-.2 1.06-.13.09-.26.13-.4.13zm-.45-.43c.08.13.21.22.35.25s.27 0 .39-.09c.25-.18.32-.55.15-.82-.08-.13-.21-.22-.35-.25s-.27 0-.39.09c-.25.18-.32.55-.15.82z"/><path d="m15.93 57.6h-4.4v-1.13h5.04z" fill="#fff"/><path d="m59.36 49.5c.42.31.99.18 1.28-.27l4.62-7.51c.28-.46.17-1.08-.25-1.39-.42-.31-.99-.18-1.28.27l-4.62 7.51c-.28.46-.17 1.09.25 1.39z" fill="#fbbd8e"/><path d="m59.43 48.96v10.94s-9.28-4.26 0-10.94z" fill="#fbbd8e"/><path d="m51.57 50.43h.03c.43 0 .78-.35.78-.78l.01-6.69c0-.43-.35-.78-.78-.78h-.03c-.43 0-.78.35-.78.78l-.01 6.69c0 .43.35.78.78.78z" fill="#fbbd8e"/><path d="m49.25 51.43 4.68 3.37c.55.39 1.29.23 1.65-.36l7.31-11.96c.36-.59.21-1.4-.33-1.79l-4.68-3.37c-.55-.39-1.29-.23-1.65.36l-7.31 11.96c-.36.59-.21 1.4.33 1.79z" fill="#fff"/><path d="m54.59 55.22c-.27 0-.54-.09-.77-.25l-4.68-3.37c-.63-.45-.8-1.38-.39-2.06l7.31-11.96c.21-.34.53-.57.91-.65.36-.07.73.01 1.03.23l4.68 3.37c.63.45.8 1.38.39 2.06l-7.31 11.96c-.21.34-.53.57-.91.65-.09.01-.18.02-.26.02zm-5.22-3.95 4.68 3.37c.21.15.47.21.72.16.27-.05.49-.22.64-.46l7.31-11.96c.31-.51.18-1.19-.28-1.52l-4.68-3.37c-.21-.15-.47-.21-.72-.16-.27.05-.49.22-.64.46l-7.31 11.96c-.31.5-.18 1.18.28 1.52z" fill="gray"/><path d="m53.92 54.79c-.25 0-.5-.08-.72-.23l.13-.17c.23.17.51.23.79.17.29-.06.54-.24.7-.51l7.31-11.96c.33-.55.2-1.29-.3-1.65l.13-.17c.59.43.75 1.29.36 1.93l-7.31 11.96c-.19.32-.5.53-.85.6-.08.02-.16.03-.24.03z" fill="gray"/><path d="m18.03 54.79c-.08 0-.16-.01-.24-.02-.35-.07-.65-.28-.85-.6l-7.31-11.97c-.39-.64-.23-1.51.36-1.93l.13.17c-.5.36-.64 1.1-.3 1.65l7.31 11.96c.16.27.41.45.7.51.28.06.56-.01.79-.17l.13.17c-.22.15-.47.23-.72.23z" fill="gray"/><path d="m49.92 48.63 5.2 3.74 6.28-10.27-5.2-3.75z"/><path d="m52.25 52.79c-.14 0-.28-.04-.39-.13-.32-.23-.41-.71-.2-1.06.11-.18.27-.29.46-.33.18-.04.37 0 .53.12.32.23.41.71.2 1.06-.11.18-.27.29-.46.33-.05.01-.09.01-.14.01zm.01-1.35c-.03 0-.06 0-.1.01-.14.03-.27.12-.35.25-.17.27-.1.64.15.82.12.08.25.11.39.09.14-.03.27-.12.35-.25.17-.27.1-.64-.15-.82-.09-.07-.19-.1-.29-.1z"/><path d="m55.08 53.39h3.81c.47 0 .85-.38.85-.85v-.04c0-.47-.38-.85-.85-.85h-3.81c-.47 0-.85.38-.85.85v.03c0 .47.38.86.85.86z" fill="#fbbd8e"/><path d="m58.88 53.54h-3.78c-.56 0-1.02-.46-1.02-1.02s.46-1.02 1.02-1.02h3.78c.56 0 1.02.46 1.02 1.02s-.46 1.02-1.02 1.02zm-3.78-1.74c-.39 0-.71.32-.71.71s.32.71.71.71h3.78c.39 0 .71-.32.71-.71s-.32-.71-.71-.71z" fill="#ac620e"/><path d="m56.28 51.65h3.81c.47 0 .85-.38.85-.85v-.03c0-.47-.38-.85-.85-.85h-3.81c-.47 0-.85.38-.85.85v.03c0 .47.38.85.85.85z" fill="#fbbd8e"/><path d="m60.08 51.8h-3.78c-.56 0-1.02-.46-1.02-1.02s.46-1.02 1.02-1.02h3.78c.56 0 1.02.46 1.02 1.02s-.46 1.02-1.02 1.02zm-3.78-1.73c-.39 0-.71.32-.71.71s.32.71.71.71h3.78c.39 0 .71-.32.71-.71s-.32-.71-.71-.71z" fill="#ac620e"/><path d="m56.44 47.84 3.48 1.95c.39.22.88.05 1.08-.37.2-.42.05-.95-.34-1.17l-3.48-1.95c-.39-.22-.88-.05-1.08.37-.2.43-.05.96.34 1.17z" fill="#fbbd8e"/><path d="m60.29 50.04c-.15 0-.3-.04-.44-.12l-3.48-1.95c-.46-.26-.64-.87-.41-1.37.12-.25.33-.43.58-.51.24-.08.49-.05.71.07l3.48 1.95c.46.26.64.87.41 1.37-.12.25-.33.43-.58.51-.09.04-.18.05-.27.05zm-3.48-3.68c-.06 0-.12.01-.18.03-.17.05-.31.18-.4.36-.17.36-.04.79.28.97l3.49 1.94c.15.08.31.1.47.05.17-.05.31-.18.4-.36.17-.36.04-.79-.28-.97l-3.48-1.95c-.1-.05-.2-.07-.3-.07z" fill="#ac620e"/><path d="m56.07 57.6h4.4v-1.13h-5.04z" fill="#fff"/><path d="m35.92 70.36h-9.93l-4.31-9.53-7.23 7.51c-1.72 1.03-3.12.13-3.12-2v-8.87h4.89l-2.8 7.44 12.9-16.33 9.73 21.55m0 .23h9.93l3.5-9.18 8.03 7.16c1.72 1.03 3.12.13 3.12-2v-8.87h-4.89l2.8 7.44-12.7-15.44-9.93 20.67" fill="#534741"/><path d="m38.29 70.37h-4.37l-9.42-17.58h22.97z" fill="#fff"/><path d="m47.46 52.87-11.48 8.07-11.41-8.07v-9.57h22.89z" fill="#fbbd8e"/><path d="m36.12 57.57-11.55-10.55v5.85l11.41 8.07 11.48-8.07v-5.4z" fill="#fff"/><path d="m34.09 70.5 1.85-12.05 2.13 11.91" fill="#a2def9"/><path d="m34.27 70.53-.35-.05 2.01-13.1 2.31 12.95-.34.06-1.95-10.88z" fill="#29abe2"/><path d="m48.02 53.71-.2-.21v5.7h-2.5l2.12 1.28-6.89 9.88h.25l6.87-9.85.07-.1-1.65-.99h1.93z" fill="#333"/><path d="m24.15 59.2v-5.7l-.2.21v5.71h1.93l-1.65.99 6.94 9.95h.25l-6.9-9.88 2.13-1.28z" fill="#333"/><path d="m37.16 60.89h-1.97l-2.23-3.96h6.43z" fill="#a2def9"/><path d="m37.26 61.07h-2.18l-2.43-4.32h7.05zm-1.96-.36h1.75l2.03-3.6h-5.81z" fill="#29abe2"/><path d="m24.74 52.91 7.27 8.93 3.85-5.05-9.77-7.99" fill="#fff"/><path d="m32.01 62.01-7.35-9.03.16-.13 7.19 8.83 3.71-4.87-9.69-7.93.13-.16 9.84 8.05z" fill="url(#b)"/><path d="m24.57 45.34 6.63 6.26c1.23 1.43 2.99 2.11 4.78 2.11s3.55-.68 4.78-2.11l6.7-6.37v-1.29h-22.89z" fill="#d68a6e"/><path d="m16.7 53.17h-3.81c-.47 0-.85-.38-.85-.85v-.03c0-.47.38-.85.85-.85h3.81c.47 0 .85.38.85.85v.03c0 .46-.39.85-.85.85z" fill="#fbbd8e"/><path d="m16.68 53.32h-3.78c-.56 0-1.02-.46-1.02-1.02s.46-1.02 1.02-1.02h3.78c.56 0 1.02.46 1.02 1.02s-.46 1.02-1.02 1.02zm-3.78-1.73c-.39 0-.71.32-.71.71s.32.71.71.71h3.78c.39 0 .71-.32.71-.71s-.32-.71-.71-.71z" fill="#ac620e"/><path d="m15.5 51.43h-3.81c-.47 0-.85-.38-.85-.85v-.03c0-.47.38-.85.85-.85h3.81c.47 0 .85.38.85.85v.03c0 .47-.38.85-.85.85z" fill="#fbbd8e"/><path d="m15.48 51.59h-3.78c-.56 0-1.02-.46-1.02-1.02s.46-1.02 1.02-1.02h3.78c.56 0 1.02.46 1.02 1.02s-.46 1.02-1.02 1.02zm-3.78-1.74c-.39 0-.71.32-.71.71s.32.71.71.71h3.78c.39 0 .71-.32.71-.71s-.32-.71-.71-.71z" fill="#ac620e"/><path d="m14.69 47.35-3.3 2.3c-.37.26-.87.14-1.1-.26-.24-.4-.13-.94.24-1.2l3.3-2.3c.37-.26.87-.14 1.1.26.24.4.13.94-.24 1.2z" fill="#fbbd8e"/><path d="m10.97 49.94c-.06 0-.13-.01-.19-.02-.26-.06-.48-.22-.61-.45-.28-.47-.15-1.1.28-1.4l3.3-2.3c.21-.15.46-.2.71-.14.26.06.48.22.61.45.28.47.15 1.1-.28 1.4l-3.3 2.3c-.16.1-.34.16-.52.16zm3.29-4.04c-.12 0-.24.04-.34.11l-3.3 2.3c-.31.21-.4.66-.2 1 .1.16.24.27.42.31.16.04.33 0 .47-.1l3.3-2.3c.31-.21.4-.66.2-1-.1-.16-.24-.27-.42-.31-.05 0-.09-.01-.13-.01z" fill="#ac620e"/><path d="m47.28 52.91-7.57 8.61-3.69-4.65 10.5-8.29" fill="#fff"/><path d="m39.7 61.68-3.83-4.83 10.58-8.35.13.16-10.42 8.23 3.55 4.47 7.49-8.52.15.14z" fill="url(#c)"/><path d="m41.52 46.21s-.26 1.57-.59 3.48c-.32 1.91-2.2 2.65-4.18 2.65h-1.47c-1.97 0-3.85-.73-4.18-2.65-.32-1.91-.59-3.48-.59-3.48" fill="#fbbd8e"/><path d="m30.35 44.67h12.36v1.1h-12.36z" fill="#fbbd8e"/><path d="m21.93 34.89-1.33-21.23c-.56-13.14 14.4-12.16 15.38-12.16 1.17 0 17.45-1.16 15.81 11.92-.56 4.45-.11 21.48-.11 21.48z"/><path d="m22.55 29.25-1.41-4.59c-.33-1.07-1.48-1.72-2.57-1.45l-.81.2c-1.08.27-1.74 1.38-1.45 2.46l2.23 8.47c.28 1.08 1.39 1.7 2.46 1.37l3.11-.96" fill="#fbbd8e"/><path d="m20.1 33.77c-.2 0-.4-.05-.58-.15-.35-.19-.62-.55-.72-.98l-1.4-5.86c-.2-.84.24-1.69.99-1.91l.49-.14c.34-.1.7-.06 1.02.12.36.2.64.56.76.99l.88 3.18-.33.09-.88-3.18c-.09-.34-.31-.62-.6-.78-.24-.13-.51-.17-.76-.09l-.49.14c-.57.17-.91.85-.75 1.51l1.4 5.86c.08.34.28.62.55.76.23.12.49.14.73.05l1.88-.68.12.32-1.88.68c-.14.05-.29.07-.43.07z" fill="url(#e)"/><path d="m20.41 36.08c-.37 0-.74-.09-1.07-.28-.53-.3-.92-.79-1.07-1.39l-2.23-8.47c-.16-.6-.07-1.22.24-1.75s.82-.91 1.42-1.06l.81-.2c1.23-.31 2.54.43 2.91 1.64l1.41 4.59-.54.17-1.41-4.59c-.29-.93-1.28-1.49-2.23-1.26l-.81.2c-.45.11-.83.39-1.06.79-.24.4-.3.87-.18 1.32l2.23 8.47c.12.45.4.81.8 1.04.4.22.86.27 1.3.13l3.11-.96.17.54-3.11.96c-.24.08-.46.11-.69.11z" fill="url(#g)"/><path d="m49.24 29.25 1.41-4.59c.33-1.07 1.48-1.72 2.57-1.45l.81.2c1.08.27 1.74 1.38 1.45 2.46l-2.23 8.47c-.28 1.08-1.39 1.7-2.46 1.37l-3.11-.96" fill="#fbbd8e"/><path d="m51.39 33.87c-.14 0-.28-.02-.42-.07l-1.88-.68.12-.32 1.88.68c.24.09.5.07.73-.05.27-.15.47-.42.55-.76l1.4-5.86c.16-.66-.18-1.34-.75-1.51l-.49-.14c-.25-.07-.52-.04-.76.09-.29.16-.5.44-.6.78l-.88 3.18-.33-.09.88-3.18c.12-.42.39-.78.76-.99.32-.18.68-.22 1.02-.12l.49.14c.74.22 1.19 1.08.99 1.91l-1.4 5.86c-.1.43-.37.79-.72.98-.19.1-.39.15-.59.15z" fill="url(#h)"/><path d="m51.38 36.08c-.22 0-.45-.03-.67-.1l-3.11-.96.17-.54 3.11.96c.44.14.9.09 1.3-.13s.68-.59.8-1.04l2.23-8.47c.12-.45.05-.92-.18-1.32-.24-.4-.61-.68-1.06-.79l-.81-.2c-.94-.24-1.94.33-2.23 1.26l-1.41 4.59-.54-.17 1.41-4.59c.37-1.21 1.68-1.95 2.91-1.64l.81.2c.6.15 1.1.52 1.42 1.06.31.53.4 1.15.24 1.75l-2.23 8.47c-.16.6-.54 1.09-1.07 1.39-.35.18-.72.27-1.09.27z" fill="url(#i)"/><path d="m49.98 7.05c0-.91-10.16-.37-10.16-.37-2.13.17-5.6.17-7.73 0 0 0-8.12-.69-8.12.22 0 1.07-3.79 30.22-3.79 30.22-.28 2.14 1.17 3.96 2.82 5.4l7.93 7.68c1.29 1.45 3.13 2.13 5.01 2.13s3.72-.68 5.01-2.13l7.29-6.77c1.66-1.45 3.73-4.17 3.46-6.31.01 0-1.72-28.99-1.72-30.07z" fill="#fbbd8e"/><path d="m35.95 52.38c-2.02 0-3.81-.76-5.04-2.15l-7.92-7.67c-2.14-1.87-3.07-3.66-2.84-5.44.04-.29 3.79-29.15 3.79-30.21 0-.06.03-.12.08-.17.78-.71 7.79-.13 8.09-.1 2.13.17 5.59.17 7.72 0 .38-.02 9.33-.49 10.14.27.03.04.06.09.06.14 0 1.06 1.71 29.78 1.73 30.07.26 2.04-1.62 4.72-3.47 6.35l-7.29 6.77c-1.24 1.38-3.03 2.14-5.05 2.14zm-9.18-45.9c-1.32 0-2.43.08-2.7.33-.03.03-.05.06-.05.1 0 1.07-3.63 29.03-3.79 30.22-.23 1.76.69 3.51 2.81 5.36l7.93 7.68c1.22 1.37 2.99 2.12 4.98 2.12s3.76-.75 4.98-2.12l7.3-6.78c1.84-1.61 3.7-4.26 3.44-6.27-.02-.29-1.73-29.01-1.73-30.08 0-.03-.01-.05-.04-.08-.78-.74-9.98-.25-10.07-.24-2.13.17-5.6.17-7.73 0-.05.01-3.01-.24-5.33-.24z" fill="url(#j)"/><path d="m35.95 52.63c-2.1 0-3.94-.78-5.19-2.19l-8.3-7.97c-1.69-1.48-2.78-4.47-2.48-6.81 1.3-9.5 3.77-27.69 3.77-28.52 0-.15.07-.28.19-.38.79-.65 5.98.33 8.2.79 2.12.16 5.55.16 7.66 0 .01 0 2.24-.26 4.53-.44 4.77-.36 5.17 0 5.37.17.11.1.17.22.17.36 0 1.05 2.15 27.78 2.17 28.05.29 2.23-.89 5.29-2.62 6.8l-8.28 7.96c-1.25 1.4-3.09 2.18-5.19 2.18zm-11.54-45.38c-.15 2.14-3.62 27.4-3.77 28.5-.27 2.1.75 4.9 2.27 6.23l8.34 8.01c1.44 1.63 3.35 1.98 4.7 1.98s3.26-.34 4.7-1.98l.02-.02 8.31-7.98c1.57-1.38 2.67-4.23 2.41-6.24-.09-1.09-2.08-25.88-2.18-28-.73-.32-5.25-.03-9.34.46-2.16.17-5.65.17-7.79 0l-.05-.01c-3.21-.66-6.95-1.2-7.62-.95z" fill="url(#k)"/><path d="m50.77 8.92-28.33.07 2.76-3.91 22.6.07z" fill="url(#l)"/><path d="m23.78 20.31 1.17-14.49c-.97-.17-3.33 3.1-3.33 3.1l-.94 18.22c0-.6.06-1.15.16-1.66l-.17 2.52h.86l.01-4.54c1.08-2.14 2.24-3.15 2.24-3.15z" fill="url(#n)"/><path d="m48.38 20.31-1.32-15.47c3.3 1.1 4.17 4.08 4.17 4.08l.26 18.22c0-.6-.06-1.15-.16-1.66l.17 2.52h-.86l-.01-4.54c-1.09-2.14-2.25-3.15-2.25-3.15z" fill="url(#o)"/><g opacity=".6"><path d="m27.91 36.28s4.05 1.39 8.26 1.39 8.1-1.39 8.1-1.39-4.46 4.68-4.46 6.87c0 2.7-7.37 2.7-7.37.15.01-3.02-4.53-7.02-4.53-7.02z" fill="#e95086"/><path d="m36.06 45.26c-1.77 0-3.67-.61-3.67-1.96 0-2.96-4.47-6.93-4.52-6.97l-.23-.2.29.1c.04.01 4.09 1.39 8.25 1.39 4.15 0 8.04-1.37 8.08-1.39l.24-.09-.18.18c-.04.05-4.44 4.68-4.44 6.83 0 .66-.42 1.21-1.22 1.59-.68.34-1.61.52-2.6.52zm-7.9-8.83c.38.35 1.23 1.17 2.07 2.19 1.51 1.84 2.28 3.41 2.28 4.68 0 .89 1.11 1.84 3.55 1.84.97 0 1.88-.18 2.56-.5.52-.25 1.15-.71 1.15-1.48 0-.92.75-2.37 2.24-4.29.85-1.11 1.72-2.06 2.07-2.44-.89.29-4.3 1.32-7.9 1.32-3.57-.02-7.05-1.02-8.02-1.32z" fill="#f499b8"/></g><path d="m27.91 36.28s7.21 5.04 16.37 0l-7.46 6.36h-1.36z"/><path d="m40.8 37.86c-3.47.77-6.23.64-9.24 0l2.84 4.78h3.48z" fill="#fff"/><path d="m27.01 37.98-.3-.18 2.02-3.58.31.18z" fill="url(#q)"/><path d="m45.34 37.98-2.02-3.58.3-.18 2.03 3.58z" fill="url(#r)"/><path d="m33.96 43.2h4.44v.62h-4.44z" fill="url(#s)" opacity=".7"/><path d="m33.27 42.53h5.74v.33h-5.74z" fill="url(#u)" opacity=".5"/><path d="m36.18 38.5c-3.15 0-6.13-.76-8.17-2.07l.1-.15c2.02 1.3 4.96 2.04 8.07 2.04 3.17 0 6.15-.77 8.17-2.11l.1.15c-2.05 1.36-5.06 2.14-8.27 2.14z" fill="url(#v)"/><path d="m34.89 37.51 1.15.68 1.18-.66-1.16-.68z" fill="#fbbd8e"/><path d="m36.46 23.69-.6-2.13-10.4.2-1.64 3.57h.16l1.88-2.26c.28.07 10.6.62 10.6.62z" fill="url(#x)" opacity=".6"/><path d="m35.74 23.7.83-2.12 10.6.1.9 3.65-1.07-2.24z" fill="url(#y)" opacity=".6"/><path d="m37.77 25.85s7.07.11 8.91.97c0 0-4.48-4.4-8.91-.97z" fill="#fff"/><path d="m33.84 25.85s-7.07.11-8.91.97c0 0 4.48-4.4 8.91-.97z" fill="#fff"/><path d="m25.67 26.57-3.78-.84.07-.3 3.57.79c.43-.62 3.13-4.04 8.14-1.92l-.12.28c-2.19-.93-4.17-.89-5.89.11-1.28.75-1.92 1.77-1.93 1.78z" fill="url(#A)"/><path d="m46.29 26.56-.06-.09c-.11-.18-2.8-4.29-7.76-1.88l-.13-.28c4.79-2.33 7.65 1.28 8.09 1.9l3.55-.79.07.3z" fill="url(#B)"/><path d="m45.99 26.46-.07-.3 3.65-.81.07.3z" fill="url(#D)"/><g clip-path="url(#E)"><circle cx="29.66" cy="25.44" r="2.66"/><path d="m29.66 29.56c-2.27 0-4.12-1.85-4.12-4.12s1.85-4.12 4.12-4.12 4.12 1.85 4.12 4.12-1.84 4.12-4.12 4.12zm0-5.31c-.66 0-1.19.53-1.19 1.19s.53 1.19 1.19 1.19 1.19-.53 1.19-1.19-.53-1.19-1.19-1.19z" fill="#333"/></g><g clip-path="url(#F)"><circle cx="42.07" cy="25.41" r="2.66"/><path d="m42.07 29.62c-2.32 0-4.21-1.89-4.21-4.21s1.89-4.21 4.21-4.21 4.21 1.89 4.21 4.21-1.89 4.21-4.21 4.21zm0-5.31c-.61 0-1.1.49-1.1 1.1s.49 1.1 1.1 1.1c.6 0 1.1-.49 1.1-1.1s-.5-1.1-1.1-1.1z" fill="#333"/></g><path d="m25.59 26.58c-.05 0-.1-.02-.14-.06-.07-.08-.06-.19.02-.26 4.26-3.72 8.09-.85 8.13-.83.08.06.1.18.03.26-.06.08-.18.1-.26.03-.15-.11-3.64-2.71-7.67.81-.02.03-.06.05-.11.05z" fill="url(#H)"/><path d="m46.23 26.58c-.04 0-.09-.01-.12-.05-1.7-1.48-3.51-2.07-5.37-1.74-1.39.24-2.29.92-2.29.93-.08.06-.2.05-.26-.03s-.05-.2.03-.26c.04-.03 3.87-2.9 8.13.83.08.07.08.18.02.26-.04.04-.09.06-.14.06z" fill="url(#I)"/><path d="m49.76 28.15c-3.69-2.11-11.63-2.06-11.7-2.06v-.49c.02 0 2.05-.01 4.52.24 3.33.34 5.83.97 7.43 1.89z" fill="url(#K)"/><path d="m22.07 28.17-.24-.43c1.61-.92 4.13-1.56 7.47-1.9 2.48-.25 4.53-.24 4.55-.24v.49c-.09 0-8.08-.04-11.78 2.08z" fill="url(#L)"/><ellipse cx="30.73" cy="25.14" fill="#fff" opacity=".8" rx=".25" ry=".25" transform="matrix(.9894 -.1449 .1449 .9894 -3.3185 4.7181)"/><ellipse cx="43.88" cy="25.31" fill="#fff" opacity=".8" rx=".25" ry=".25" transform="matrix(.9894 -.1449 .1449 .9894 -3.2039 6.6264)"/><path d="m29.15 27.68c-1.65 0-3.2-.56-4.3-1.59l.19-.2c1.31 1.23 3.3 1.76 5.32 1.41 1.3-.22 2.5-.78 3.47-1.61l.18.21c-1 .86-2.25 1.44-3.6 1.67-.43.08-.85.11-1.26.11z" fill="url(#M)"/><path d="m42.49 27.68c-.41 0-.84-.04-1.26-.11-1.35-.23-2.6-.81-3.6-1.67l.18-.21c.97.83 2.16 1.39 3.47 1.61 2.02.35 4.01-.18 5.32-1.41l.19.2c-1.1 1.03-2.65 1.59-4.3 1.59z" fill="url(#N)"/><path d="m39.37 32.18-.76-.75-.47-6.76 3.5-3.88h-11.37l3.5 3.88-.45 6.76-.84.75c-.73 0-1.32.55-1.32 1.22s.6 1.22 1.32 1.22h6.89c.73 0 1.32-.55 1.32-1.22s-.59-1.22-1.32-1.22z" fill="#fbbd8e"/><path d="m39.37 34.81h-6.89c-.84 0-1.52-.63-1.52-1.42 0-.76.64-1.38 1.44-1.41l.72-.64.44-6.59-3.44-3.82c-.05-.06-.07-.14-.03-.21.03-.07.1-.12.18-.12h11.37c.08 0 .15.05.18.12s.02.16-.03.21l-3.44 3.82.46 6.6.65.64c.8.04 1.44.66 1.44 1.41-.01.78-.69 1.41-1.53 1.41zm-8.65-13.82 3.2 3.55c.04.04.05.09.05.15l-.45 6.76c0 .05-.03.1-.07.14l-.84.75c-.04.03-.08.05-.13.05-.62 0-1.12.46-1.12 1.02s.5 1.02 1.12 1.02h6.89c.62 0 1.12-.46 1.12-1.02s-.5-1.02-1.12-1.02c-.05 0-.1-.02-.14-.06l-.76-.75c-.04-.03-.06-.08-.06-.13l-.47-6.76c0-.05.01-.11.05-.15l3.2-3.55z" fill="url(#O)"/><path d="m39.73 33.43-3.15 2.93h-1.48l-2.89-2.93" fill="#fbbd8e"/><path d="m36.66 36.55h-1.64l-2.94-2.98c-.07-.08-.07-.2 0-.27.08-.07.2-.07.27 0l2.83 2.87h1.33l3.09-2.87c.08-.07.2-.07.27.01s.07.2-.01.27z" fill="url(#P)"/></svg>