<svg enable-background="new 0 0 72 72" viewBox="0 0 72 72" xmlns="http://www.w3.org/2000/svg"><ellipse cx="36.2" cy="64" fill="#bbbdbf" rx="29.2" ry="6.3"/><path d="m39.8 17.3-5 1.1c-.5.1-1-.2-1.1-.7l-1.1-5c-.1-.5.2-1 .7-1.1l5-1.1c.5-.1 1 .2 1.1.7l1.1 5c.1.6-.2 1-.7 1.1z" fill="#c7eafb"/><path d="m34.6 19.5c-.4 0-.7-.1-1-.3-.4-.3-.7-.7-.8-1.2l-1.1-5c-.1-.5 0-1 .3-1.5.3-.4.7-.7 1.2-.8l5-1.1c1-.2 2.1.4 2.3 1.5l1.1 5c.1.5 0 1-.3 1.5-.3.4-.7.7-1.2.8l-5 1.1c-.2-.1-.3 0-.5 0zm-.9-6.9 1 4.8 4.8-1-1-4.8z"/><path d="m50.3 19.9-5.2.1c-.5 0-.9-.4-.9-.9l-.2-5.1c0-.5.4-.9.9-.9l5.1-.2c.5 0 .9.4.9.9l.2 5.1c0 .5-.3.9-.8 1z" fill="#c7eafb"/><path d="m45.1 21.1c-.5 0-1-.2-1.3-.5-.4-.4-.6-.8-.6-1.3l-.2-5.2c0-1.1.8-2 1.9-2l5.1-.2c.5 0 1 .2 1.4.5.4.4.6.8.6 1.3l.2 5.1c0 1.1-.8 2-1.9 2zm0-7 .2 4.9 4.9-.2-.3-4.8z"/><path d="m25.8 23.5-4.4-2.5c-.4-.2-.6-.8-.3-1.2l2.5-4.5c.2-.4.8-.6 1.2-.3l4.5 2.5c.4.2.6.8.3 1.2l-2.5 4.5c-.3.4-.8.6-1.3.3z" fill="#c7eafb"/><path d="m26.3 24.7c-.3 0-.6-.1-.9-.2l-4.5-2.5c-.4-.3-.8-.7-.9-1.2s-.1-1 .2-1.5l2.5-4.5c.5-.9 1.7-1.3 2.6-.7l4.5 2.5c.4.3.8.7.9 1.2s.1 1-.2 1.5l-2.5 4.4c-.3.4-.7.8-1.2.9-.2.1-.4.1-.5.1zm-4.3-4.5 4.3 2.4 2.4-4.3-4.3-2.4z"/><path d="m60.5 18.3-.5 5.1c0 .5-.5.9-1 .8l-5-.4c-.5 0-.9-.5-.8-1l.4-5.1c0-.5.5-.9 1-.8l5.1.4c.4 0 .8.5.8 1z" fill="#c7eafb"/><path d="m59.2 25.2c-.1 0-.1 0-.2 0l-5.1-.4c-1.1-.1-1.9-1-1.8-2.1l.4-5.1c0-.5.3-1 .7-1.3s.9-.5 1.4-.5l5.1.4c1.1.1 1.9 1 1.8 2.1l-.4 5.1c0 .5-.3 1-.7 1.3-.4.4-.8.5-1.2.5zm-5-2.4 4.9.4.4-4.9-4.9-.4z"/><path d="m55.1 63.7h-37.4c-1 0-1.9-.8-2-1.8l-4.9-38.2h51.2l-4.9 38.2c-.2 1.1-1 1.8-2 1.8z" fill="#bcbec0"/><path d="m51.3 14.1-3.2 6.5 6.5 2.3 1.7-7z" fill="#faaf42"/><path d="m55.3 24.3-8.6-3.1 6.1-12.6 5.8 2.1zm-5.7-4.2 4.3 1.5 2.3-9.6-2.3-.8z"/><path d="m57.9 13-6.1-2.2s.1-.4.3-.9l.2-.5c.2-.4.7-.6 1.2-.4l4.3 1.5c.5.2.7.7.6 1.2l-.2.5c-.2.4-.3.8-.3.8z"/><path d="m58.5 14.3-8-2.9.8-2.3c.4-1 1.5-1.5 2.5-1.2l4.3 1.5c.5.2.9.5 1.1 1s.3 1 .1 1.5zm-5.4-4.1 4.2 1.5.1-.3-4.2-1.4z"/><circle cx="52.5" cy="15.9" fill="#fff" r=".4"/><circle cx="53.4" cy="18.7" fill="#c38a2e" r=".3"/><path d="m14.3 11 .7 11.4 7.8-.2-3.3-12.2z" fill="#faaf42"/><path d="m14.1 24.5-1.3-19.1 6-1.1 5.6 19.1zm.9-17.4 1 15.1 5.8-.6-4.4-15z"/><path d="m19.5 6.8-6.4 1.1s-.1-.4-.2-.9l-.1-.5c-.1-.5.2-1 .8-1.1l4.5-.8c.5-.1 1 .2 1.1.8l.1.5c.1.4.2.9.2.9z"/><path d="m12.3 9.1-.4-2.4c-.1-.5 0-1 .3-1.5.3-.4.7-.7 1.3-.8l4.5-.8c1.1-.2 2.1.5 2.3 1.6l.4 2.4zm1.6-2.7.1.3 4.3-.8-.1-.3z"/><circle cx="16.8" cy="14.8" fill="#fff" r=".4"/><circle cx="18" cy="12.3" fill="#c38a2e" r=".3"/><path d="m40.4 8.1-2.7 13.3 8.2.2-.2-13z" fill="#faaf42"/><path d="m47 23-10.4-.5 3.9-20.1 6.1.5zm-8-2.4 5.9.3-.3-16-2.5-.2z"/><path d="m46.6 5.4-6.4-.6s0-.4.1-.9v-.5c0-.5.5-.9 1-.8l4.5.4c.5 0 .9.5.8 1v.5z"/><path d="m47.5 6.5-8.5-.7.2-2.4c.1-1.1 1-1.9 2.1-1.8l4.6.4c1.1.1 1.9 1 1.8 2.1zm-6.3-2.6 4.4.4v-.3l-4.4-.4z"/><circle cx="43.5" cy="10.9" fill="#c38a2e" r=".4"/><circle cx="41.9" cy="17.5" fill="#fff" r=".3"/><g fill="#939598"><path d="m12.4 26h48.2v3.5h-48.2z"/><path d="m12.4 42.7h48.2v3.5h-48.2z"/><path d="m15.5 57.6h42.1v4.3h-42.1z"/><path d="m55.6 63.1h-8.6l5.1-38.4h8.6z"/></g><path d="m55.1 66.3h-37.4c-2.2 0-4.8-1.6-5.1-4v-.3-4.4l-4.8-36.5h57l-4.7 36.5-.1 4.6c-.2 2.5-2.7 4.1-4.9 4.1zm-37.4-5.2h37.4l.1-4 4-30.9h-45.5l4 31.2z"/><path d="m40.7 36h-9.5c-3.4 0-6.1-2.7-6.1-6.1v-7.1h21.6v7.2c.1 3.3-2.6 6-6 6zm-11.4-9v3c0 1.1.9 2 2 2h9.5c1.1 0 2-.9 2-2v-3z" fill="#939598"/><path d="m27.5 15.7-.3 7.3 6.8-.5-1.2-7.1z" fill="#faaf42"/><path d="m26.2 24.1.5-14 6.1-.4 2.4 13.8zm2.5-12.1-.4 9.9 4.5-.3-1.7-9.7z"/><path d="m33.1 12.1-6.4.4s0-.4-.1-.9v-.5c0-.5.4-1 .9-1l4.6-.3c.5 0 1 .4 1 .9v.5z"/><path d="m25.7 13.7-.2-2.4c0-.5.1-1 .5-1.4.3-.4.8-.6 1.3-.7l4.7-.4c.5 0 1 .1 1.4.5s.6.8.7 1.3l.2 2.4zm1.9-2.5v.3l4.4-.3v-.3z"/><circle cx="29.3" cy="16.9" fill="#fff" r=".4"/><circle cx="30.1" cy="20.2" fill="#c38a2e" r=".3"/><path d="m38.2 22.6-5 1.2c-.5.1-1-.2-1.1-.7l-1.2-5c-.1-.5.2-1 .7-1.1l5-1.2c.5-.1 1 .2 1.1.7l1.2 5c.1.5-.2 1-.7 1.1z" fill="#c7eafb"/><path d="m33 24.9c-.9 0-1.7-.6-1.9-1.5l-1.2-5c-.1-.5 0-1 .2-1.5s.7-.7 1.2-.9l5-1.2c.5-.1 1 0 1.5.2.4.3.7.7.9 1.2l1.2 5c.1.5 0 1-.2 1.5-.3.4-.7.7-1.2.9l-5 1.2c-.2.1-.3.1-.5.1zm-1-6.9 1.1 4.7 4.7-1.1-1.1-4.7z"/><path d="m45.9 16.2 4.6 2.3c.4.2.6.8.4 1.2l-2.3 4.6c-.2.4-.8.6-1.2.4l-4.6-2.3c-.4-.2-.6-.8-.4-1.2l2.3-4.6c.2-.5.8-.7 1.2-.4z" fill="#c7eafb"/><path d="m47.8 25.8c-.3 0-.6-.1-.9-.2l-4.6-2.3c-.5-.2-.8-.6-1-1.1s-.1-1 .1-1.5l2.3-4.6c.2-.5.6-.8 1.1-1s1-.1 1.5.1l4.6 2.3c.9.5 1.3 1.6.9 2.6l-2.3 4.6c-.2.5-.6.8-1.1 1-.2.1-.4.1-.6.1zm-4.4-4.3 4.4 2.2 2.2-4.4-4.4-2.2z"/><path d="m19.3 23.7-5 1.1c-.5.1-1-.2-1.1-.7l-1.1-5c-.1-.5.2-1 .7-1.1l5-1.1c.5-.1 1 .2 1.1.7l1.1 5c.1.5-.2 1-.7 1.1z" fill="#c7eafb"/><path d="m14.1 25.8c-.9 0-1.7-.6-1.9-1.5l-1.1-5c-.1-.5 0-1 .3-1.5.3-.4.7-.7 1.2-.8l5-1.1c.5-.1 1 0 1.5.3.4.3.7.7.8 1.2l1.1 5c.2 1-.4 2.1-1.5 2.3l-5 1.1c-.1 0-.2 0-.4 0zm-.9-6.8 1.1 4.8 4.8-1.1-1.1-4.8z"/><path d="m7.9 23.6h56.8" fill="#bcbec0"/><path d="m64.7 26.2h-56.8c-1.4 0-2.6-1.1-2.6-2.6s1.1-2.6 2.6-2.6h56.8c1.4 0 2.6 1.1 2.6 2.6s-1.2 2.6-2.6 2.6z"/><circle cx="42.3" cy="11.6" fill="#fff" r=".3"/><path d="m14.8 57.5h42.9" fill="#bcbec0"/><path d="m14.8 56.5h42.9v2.1h-42.9z"/><path d="m14.8 43.1h42.9" fill="#bcbec0"/><path d="m14.8 42h42.9v2.1h-42.9z"/><path d="m47.5 49.2-2-.5c-.5-.1-.9-.5-1-1l-.5-2c-.1-.4-.8-.4-.9 0l-.5 2c-.1.5-.5.9-1 1l-2 .5c-.2 0-.3.2-.3.4s.1.4.3.4l2 .5c.5.1.9.5 1 1l.5 2c0 .2.2.3.4.3s.4-.1.4-.3l.5-2c.1-.5.5-.9 1-1l2-.5c.2 0 .3-.2.3-.4.2-.2.1-.3-.2-.4z" fill="#fff"/><path d="m40.7 34h-9.5c-2.8 0-5.1-2.3-5.1-5.1v-6.1h19.6v6.1c.1 2.8-2.2 5.1-5 5.1zm-12.5-9.1v4c0 1.7 1.3 3 3 3h9.5c1.7 0 3-1.3 3-3v-4z"/><path d="m24 34.4-1-.3c-.2-.1-.4-.2-.5-.5l-.3-1c-.1-.2-.4-.2-.4 0l-.3 1c-.1.2-.2.4-.5.5l-1 .3c-.1 0-.2.1-.2.2s.1.2.2.2l1 .3c.2.1.4.2.5.5l.3 1c0 .1.1.2.2.2s.2-.1.2-.2l.3-1c.1-.2.2-.4.5-.5l1-.3c.1 0 .2-.1.2-.2s-.1-.2-.2-.2z" fill="#fff"/></svg>