<svg enable-background="new 0 0 65 65" viewBox="0 0 65 65" xmlns="http://www.w3.org/2000/svg"><circle cx="32.422" cy="32.578" fill="#a26f64" r="27.422"/><path d="m32.422 60c8.989 0 16.968-4.325 21.969-11.008-.241-.128-.412-.201-.412-.201s-4.905-1.496-5.362-1.496-1.58-.125-1.58-.125-.416-.499-.914-.665c-.499-.166-1.247-.208-1.787-.416s-.624-.707-.624-.707l2.411-1.538s2.66-2.12 2.951-3.034 1.122-2.037 1.455-3.783 1.122-6.443.998-6.859c-.125-.416-1.372-6.692-1.372-6.692s.291-.416.125-1.081-.374-2.12-.54-2.328-.333-.042-.499-.582-.374-.707-.457-.914c-.083-.208-1.289-7.357-1.455-7.482s-1.164-.042-1.372-.166c-.208-.125-.79-.582-.79-.582l-1.513-1.762-2.977-2.769c-3.064-1.183-13.759-1.587-16.918-.125-2.245 1.039-3.533 3.367-5.071 5.03-.586.634-1.388-1.022-2.09-.525.017.875-.071 2.229-.071 2.229l-1.081 6.11-.333.831-.333.457s-.333.665-.499.998-.54 2.286-.54 2.286l.166.416-1.122 6.235s-.125 1.871.125 2.91c.249 1.039.499 4.656.748 5.071.249.416 1.122 2.494 1.663 3.492.54.998 1.58 1.954 2.12 2.328s2.536 1.663 2.702 1.954-.249.665-.665.707-1.663.374-2.037.54-.873.914-1.122.956-1.787-.125-2.286-.083-2.245.582-2.245.582l-1.552.479c4.985 6.853 13.063 11.312 22.186 11.312z" fill="#d2d2d2"/><path d="m17.261 11.892s-.194 2.078-.333 3.215c-.139 1.136-.637 4.129-.637 4.129s-1.025 5.792-1.081 8.258-.499 4.572-.499 4.572l-.665.222s.416 1.635.998 2.66 1.164 1.884 1.164 1.884-1.053.443-1.219.499-1.58-2.854-1.58-2.854-.859-3.547-.831-4.711 1.496-5.57 1.33-6.249-.111-1.122.083-1.871c.194-.748.333-1.441.61-1.718s.222-.61.499-.998.388-1.358.388-1.358l1.275-5.847z" fill="#e6e6e6"/><path d="m54.27 49.123c-.083.083-.686.894-.686.894l-.478.312-1.247 1.621-.374.312s-3.762 0-3.803.062-5.362 3.305-6.526 3.824c-1.164.52-3.866.998-3.991 1.039-.125.042-3.866.727-4.406.686s-.062-.644-.998-.727c-.935-.083-1.351-.416-1.663-.561s-.312-.436-.499-.665-1.185-.27-1.185-.27-1.808-.52-1.891-.624.083-2.141-.021-2.432-.146-.104-.187-.208 0-1.226-.042-1.413.998.624 1.6 1.164c.603.54 1.642 1.247 2.203 1.309s3.72-.104 4.697-.416 2.847-3.159 2.889-3.346 1.891-1.309 1.891-1.309l-.811-1.143-.956-.686s-.727-.914-.831-1.143-.977-1.642-.977-1.642.021-.748-.229-1.393c-.249-.644-1.039-1.808-1.268-2.078s-1.6-.831-2.349-.831c-.748 0-2.39.436-2.536.52-.145.083-1.621.707-1.663.624s.54-1.933.561-2.058.353-.436.914-.603c.561-.166 2.681-.894 2.681-.894l-.062-9.623s.166-.249.998-.042c.831.208 7.628 3.388 7.586 3.034-.042-.353.291-5.009-.603-5.05s-2.827.478-2.993.457.021-1.081.145-1.974c.125-.894.624-8.314.603-10.6s.125-4.198.291-4.593.416-2.099.374-2.182-.353-.042-1.039-.54c-.686-.499-2.411-1.143-2.411-1.143s5.134.727 5.944 1.143c.811.416 3.762 3.762 4.24 4.406s.977.852 1.476 1.185.852.873.935 1.039c.031.062.184.852.363 1.818-.492.345-.821.572-.821.572l1.372 10.849s-.457 4.531-.499 6.152-.956 4.281-1.205 4.656c-.249.374 2.078.79 2.078.79l-.042.956-.333.914s-1.413 2.12-2.743 2.868-1.829.998-1.829 1.205-.291 1.787-.208 2.037.624-.249.624-.249 1.205-.831 1.372-.956c.028-.021.134-.03.283-.033-.021.021-.034.033-.034.033s.062.229.166.478-.166.083-.021.416c.146.333-.145.187 0 .52.146.333-.083.291-.021.416s-.125.457.249.582.748.582.998.707c.249.125 2.473.083 2.64.146.166.062 4.011 1.351 4.011 1.351s.38.247.297.33zm-9.602-4.115-.79.27s.083.353.249.727.457.062.811.187.686.125.748 0-.062-.333-.104-.395-.042-.125.083-.353-.083-.145-.062-.229c.021-.083.062-.333-.042-.395s-.062-.208-.062-.208c-.021-.207-.831.396-.831.396z" fill="#aaa"/><path d="m48.492 25.804s-.457 4.531-.499 6.152-.956 4.281-1.205 4.656c-.249.374 2.078.79 2.078.79l-.042.956-.333.914s-1.413 2.12-2.743 2.868-1.829.998-1.829 1.205-.291 1.787-.208 2.037.624-.249.624-.249 1.205-.831 1.372-.956c.028-.021.134-.03.283-.033.292-.287 2.476-2.44 2.98-3.022.54-.624 1.476-3.949 1.559-4.094.083-.146.54-3.18.54-3.18s.603-3.014.457-3.679-1.164-6.339-1.185-6.485c-.021-.145-.042-.811-.042-.811s-.374-2.432-.644-2.64-.436-.436-.436-.436-.27-.686-.436-.894-.166-.79-.166-.79-.375-2.112-.676-3.731c-.492.345-.821.572-.821.572z" fill="#5a5a5a"/><path d="m20.205 33.369c-.935-.582-1.559-2.182-1.725-2.473s.125-4.261.166-4.385c.042-.125 1.476-.624 1.58-.707 0 0 2.536-.457 3.658-.374s3.138.312 4.385.686 1.954.457 2.182.79c.229.333.125 1.06.208 1.787s0 1.226-.166 1.58c-.166.353-2.307 1.767-2.307 1.767l-3.263 1.912s-.54.083-.603.104c-.062.021-2.827-.291-3.221-.374-.395-.084-.894-.313-.894-.313z" fill="gray"/><path d="m26.419 25.637c-.374-.083-2.619-.166-3.575-.083s-2.203.707-2.702 1.413-.665 2.203-.624 2.411-.333 1.33.748 2.411 2.619 1.039 3.658 1.205c1.041.167 4.449-1.994 4.449-1.994s1.621-1.122 1.871-1.413c.249-.291-.173-1.546-.066-2.228s-3.759-1.722-3.759-1.722z" fill="#a26f64"/><path d="m43.936 33.369c.935-.582 1.559-2.182 1.725-2.473s-.125-4.261-.166-4.385c-.042-.125-1.476-.624-1.58-.707 0 0-2.536-.457-3.658-.374s-3.138.312-4.385.686-1.954.457-2.182.79-.125 1.06-.208 1.787 0 1.226.166 1.58c.166.353 2.307 1.767 2.307 1.767l3.263 1.912s.54.083.603.104c.062.021 2.827-.291 3.221-.374.395-.084.894-.313.894-.313z" fill="gray"/><path d="m37.721 25.637c.374-.083 2.619-.166 3.575-.083s2.203.707 2.702 1.413c.499.707.665 2.203.624 2.411-.042.208.333 1.33-.748 2.411s-2.619 1.039-3.658 1.205-4.448-1.994-4.448-1.994-1.621-1.122-1.871-1.413.173-1.546.066-2.228 3.758-1.722 3.758-1.722z" fill="#875c50"/><path d="m21.251 11.255s.194 5.681.249 6.706.139 7.454.139 7.454l.804-.166s-.111-1.635-.028-1.635.914-.055.914-.055l.111 1.774 1.053-.554s-.222-7.926-.305-9.283c-.083-1.358-.333-5.792-.333-5.792s-.388.028-.388-.194-.166-2.688-.166-2.688l-1.94 1.912z" fill="#a26f64"/><path d="m42.839 11.255s-.194 5.681-.249 6.706-.139 7.454-.139 7.454l-.804-.166s.111-1.635.028-1.635-.914-.055-.914-.055l-.111 1.774-1.053-.554s.222-7.926.305-9.283c.083-1.358.333-5.792.333-5.792s.388.028.388-.194.166-2.688.166-2.688l1.94 1.912z" fill="#a26f64"/><path d="m28.539 50.162s-1.247-1.746-.887-3.575 1.912-3.215 2.66-3.492 3.159-.305 4.212.582 1.663 1.58 1.829 2.522-.083 2.245-.36 3.104-.804.831-.277.859 1.58-1.219 1.524-2.66c-.055-1.441-.305-2.494-1.219-3.547s-1.192-1.524-2.965-1.94c-1.774-.416-3.215.305-3.686.582s-1.58 1.053-1.884 1.857c-.305.804-.887 2.106-.693 2.91s1.524 2.965 1.635 3.048.111-.25.111-.25z" fill="gray"/><path d="m46.019 14.788s.353 7.295.416 8.085.914 3.325.914 3.325.624 3.097.374 4.614c-.249 1.517-1.995 4.365-1.995 4.365s-2.785 3.45-2.847 3.554-.977.145-1.455.187-.998.416-1.143.686-.79.353-1.538-.187-2.369-1.06-3.346-1.496-3.242-1.039-3.305-.873 0 .27 0 .27 1.621.894 2.349 1.226c.727.333 1.725.811 2.328 1.393s1.642.707 1.6 1.309c-.042.603-.125 2.515-.125 2.515s-.644.042-.644.166c0 .125.083.935.083 1.434s0 .831.104 1.185 1.538 1.746 2.265 1.829 1.642-.79 1.725-1.351.478-1.289.395-1.372-.208.021-.208.021-.374 1.413-1.372 1.413-1.351-1.58-1.247-2.931.686-2.078 1.185-2.162c.499-.083.956.914.956.914s.624-.353.811-.312 1.018.187 1.102.145c.083-.042 1.039-.561 1.621-1.226s2.141-2.099 2.577-2.723.499-1.289.499-1.289-.79-.333-.894-.416.686-1.226.79-1.58c.104-.353-.021-1.164.062-1.351s.769-1.725.977-2.972.166-3.596.208-4.988-.395-4.843-.395-4.843-.27-1.102-.395-1.6c-.125-.499-.166-.561.021-.831s-.748-6.297-.873-6.609-.956-.208-1.039-.042-.457.79-.457.852c-.001.066-.084 1.666-.084 1.666z" fill="#787878"/><path d="m37.601 49.435c-.104.125-1.746 2.619-1.746 2.619s-5.154 1.621-5.362 1.767c-.208.145.998.582 1.164.707s.187 1.143.249 1.247.79.145 1.185.042 1.476-.561 1.663-.582-.125.582-.125.582l.457-.042s1.829-.561 2.224-.624c.395-.062 1.85-.603 2.411-.873s2.078-.873 2.515-1.164c.436-.291 1.164-.499 1.455-.935s.852-1.496 1.102-1.746c.249-.249.457-.062.644-.187s.145-.748.561-1.122.956-.353 1.185-.333.624.977.727.478c.104-.499-.561-2.037-.914-2.265s-1.122-.52-1.704-.686-1.018-.125-1.164-.312c-.145-.187-.333-.353-.416-.624-.083-.27.125-1.122-.042-1.434-.166-.312-.166.499-.935.79s-1.33-.229-1.434-.208-.062.312.229.54.707.436.707.436-.436 1.413-.582 1.642c-.145.229-2.349 1.746-2.349 1.746z" fill="#787878"/><path d="m18.674 37.443s-.998-1.496-1.386-2.3-.721-1.469-.527-1.829.859.249.859.249 1.219 2.3 1.801 2.993 1.801 2.189 1.801 2.189.055.111 1.302.194 1.358.804 1.358.804-1.247-.055-1.746.471-.61.97-.776.859c-.164-.111-2.686-3.63-2.686-3.63z" fill="#aaa"/><path d="m12.965 33.036s1.358 3.187 1.663 3.741.693 1.413.693 1.413.139.97 1.136 2.134c.998 1.164 1.94 1.774 2.383 2.078s1.192.804 1.192.804.527.083.582.166-.166.527.277.998 1.108.804 1.136.887-.333.305-.721.139-.61-.111-.61-.111-.333.776-.443.942c-.111.166-1.524.554-2.272.804s-1.025 2.078-.333 3.048c.693.97 1.746 1.857 2.134 2.189s1.58 1.33 2.439 1.774 2.217.914 3.215 1.386c.998.471 1.219.887 1.219 1.219 0 .333-.416.277-.416.277s-2.882-.887-4.212-1.607c-1.33-.721-2.91-1.635-3.963-2.633s-1.607-2.411-1.801-3.159.36-2.827 1.746-2.965c1.386-.139 1.94-.582 1.94-.582s.083-.222.194-.471-1.081-.804-1.081-.804-2.134-1.33-3.492-3.076-2.078-4.628-2.078-4.711-.527-3.88-.527-3.88z" fill="#e6e6e6"/><g fill="#aaa"><path d="m21.722 42.597s-.166-.596.291-1.538 1.413-1.219 1.968-.998c.554.222.928 1.205 1.344 2.175s.374 2.397.36 2.563.028.624-.097.707-.263.125-.305.333.014.374.139.499-.263 1.192-.582 1.399c-.319.208-.665.416-1.219.291s-1.095-.693-1.261-1.053-.54-1.302-.527-1.427c.014-.125.263-.028.291.055s.249.624.249.624.18.776 1.095.901 1.33-1.455 1.386-2.009c.055-.554.055-1.663-.374-2.743-.43-1.081-.928-1.413-1.205-1.469-.277-.055-.596.139-.776.263s-.457.637-.443.79c.014.152-.152.637-.152.637z"/><path d="m20.586 42.652s-2.023-1.496-2.993-2.66-1.552-2.106-1.552-2.106.388-.139.36-.277c-.028-.139-.277-.499-.887-.499s-.582.416-.582.416.499 1.469.776 1.884 1.718 2.162 2.577 2.771 1.968 1.136 1.968 1.136z"/><path d="m16.679 36.667-.582-1.275s.194-.249-.194-1.524-.554-2.162-.748-3.187-.333-2.882-.36-3.603c-.028-.721.194-3.242.305-4.074.111-.831.277-2.134.333-2.439s.277-1.108.499-1.136.388.055.416.194-.36 7.787-.36 7.787-.083 3.215.139 3.769.499.859.554 1.108.249 1.275.249 1.275l.36 1.58s.111 1.275.083 1.386-.694.139-.694.139z"/></g><path d="m22.72 26.025s3.048.333 3.963.582c.914.249 1.302 1.192 1.219 2.383-.083 1.192-.333 1.58-1.358 2.411s-1.441 1.275-1.441 1.275l2.799-1.469 2.342-1.621s.596-1.76.513-2.037.222-.485-.305-.644-3.88-1.157-5.348-1.323c-1.47-.166-2.384.443-2.384.443z" fill="#875c50"/><path d="m42.951 27.983c-.672-.952-1.786-1.499-2.95-1.48-.774.013-1.835.101-3.009.437-2.328.665-1.524 4.351 2.66 4.85s4.212-2.494 3.325-3.769c-.009-.013-.018-.026-.026-.038z" fill="#a26f64"/><g fill="#474c4b"><path d="m17.152 29.057c.163 0 .296-.239.296-.534s-.132-.534-.296-.534c-.163 0-.296.239-.296.534s.133.534.296.534z"/><path d="m30.368 47.475c0-.613.326-1.145.809-1.442-.018-.574-.037-1.115-.052-1.51-1.204.394-2.079 1.521-2.079 2.865 0 1.321.846 2.433 2.017 2.846.061-.317.126-.764.156-1.293-.506-.293-.851-.836-.851-1.466z"/><path d="m32.997 44.53c-.014.398-.033.941-.052 1.516.47.3.784.826.784 1.428 0 .62-.334 1.156-.827 1.452.029.531.095.98.155 1.299 1.159-.419 1.993-1.526 1.993-2.838.001-1.335-.863-2.455-2.053-2.857z"/><circle cx="32.014" cy="50.223" r=".38"/><circle cx="14.795" cy="32.893" r=".305"/><path d="m15.457 35.489c.095 0 .171-.077.171-.171s-.077-.171-.171-.171-.171.077-.171.171.076.171.171.171z"/><path d="m21.747 46.558c.05 0 .091-.041.091-.091s-.041-.091-.091-.091-.091.041-.091.091c0 .051.041.091.091.091z"/><circle cx="15.702" cy="40.422" r=".191"/><path d="m46.97 29.057c.163 0 .296-.239.296-.534s-.132-.534-.296-.534c-.163 0-.296.239-.296.534s.133.534.296.534z"/><path d="m49.327 32.588c-.169 0-.305.137-.305.305s.137.305.305.305c.169 0 .305-.137.305-.305s-.136-.305-.305-.305z"/><path d="m48.666 35.147c-.094 0-.171.077-.171.171s.077.171.171.171c.095 0 .171-.077.171-.171s-.077-.171-.171-.171z"/><path d="m42.647 51.826c.067 0 .121-.054.121-.121s-.054-.121-.121-.121-.121.054-.121.121.054.121.121.121z"/><path d="m42.375 46.377c-.05 0-.091.041-.091.091s.041.091.091.091.091-.041.091-.091-.041-.091-.091-.091z"/><path d="m48.421 40.232c-.105 0-.191.085-.191.191s.085.191.191.191c.105 0 .191-.085.191-.191s-.086-.191-.191-.191z"/><path d="m21.497 51.584c-.004 0-.007.004-.011.004s-.007-.004-.011-.004c-.067 0-.121.054-.121.121s.054.121.121.121c.004 0 .007-.004.011-.004s.007.004.011.004c.067 0 .121-.054.121-.121s-.055-.121-.121-.121z"/><path d="m54.287 49.123c.124-.163.246-.327.366-.493l-5.978-1.726-1.442.155c-.25-.313-.537-.51-.937-.658.056-.033.062-.097.014-.207-.07-.16-.177-.238-.177-.238-.007-.009-.018-.018-.029-.027.005-.001.012-.002.014-.003.001 0 .001-.003.001-.003.028-.002.053-.003.074-.004.15-.01.187-.076.117-.236s-.177-.238-.177-.238c-.009-.011-.022-.023-.035-.034.008-.001.017-.002.021-.004.001 0 .001-.003.001-.003.028-.002.053-.003.074-.004.15-.01.187-.076.117-.236s-.177-.238-.177-.238c-.007-.009-.018-.018-.029-.027.005-.001.012-.002.014-.003.001 0 .001-.003.001-.003.028-.002.053-.003.074-.004.15-.01.187-.076.117-.236s-.177-.238-.177-.238c-.024-.03-.066-.058-.112-.081.989-.718 2.179-1.676 2.775-2.536 1.054-1.522 1.93-4.109 2.165-5.155.105-.469.143-.871.176-1.226.031-.338.059-.63.138-.817.266-.628.503-4.067.461-4.504-.033-.346-1.012-5.482-1.255-6.611.093-.175.149-.409.055-.753-.047-.172-.14-.665-.222-1.1-.154-.818-.229-1.194-.292-1.358-.099-.256-.308-.45-.485-.577-.063-.302-.215-.756-.575-1.037-.254-1.6-1.331-8.369-1.457-8.891-.213-.883-.847-.951-1.036-.951-.152 0-.31.036-.456.103-.504.233-.557.692-.592.996l-.01.085c-.01.078-.01.218-.005.394-.554-.745-1.224-1.614-1.801-2.273-2.144-2.445-2.729-2.562-2.921-2.601-.044-.01-.118-.034-.224-.068-.811-.255-3.278-1.031-7.824-1.031h-1.161c-4.546 0-7.013.776-7.824 1.031-.106.033-.18.058-.225.068-.191.038-.776.155-2.92 2.601-.578.659-1.247 1.528-1.801 2.273.005-.176.005-.316-.005-.394l-.01-.085c-.035-.304-.088-.763-.592-.996-.146-.067-.304-.103-.456-.103-.189 0-.823.069-1.036.951-.126.522-1.203 7.291-1.457 8.891-.36.282-.512.736-.575 1.037-.177.127-.387.321-.485.577-.063.164-.137.539-.292 1.358-.082.435-.175.928-.222 1.1-.095.348-.037.584.055.754-.243 1.131-1.222 6.264-1.255 6.61-.042.437.195 3.876.461 4.504.079.187.106.479.138.817.033.355.07.757.176 1.226.235 1.047 1.111 3.633 2.165 5.155.935 1.35 3.334 2.943 4.122 3.466.08.053.139.092.173.115.06.055.172.124.409.173-.049.099-.144.275-.231.363-.068.05-.444.126-.746.187-.317.064-.677.137-.987.231-.515.156-.854.364-1.146.73l-1.442-.155-5.399 1.559c.118.166.238.33.36.493l1.37-.399.14 1.12-.804.188c.392.482.801.951 1.224 1.405v-.924l3.85-.84c.027.278.088.58.196.903l-3.766.834v.317c3.551 3.699 8.127 6.404 13.273 7.657l.468-2.016c1.886.499 3.772.771 5.673 1.002l.034-.015.002.015c1.902-.231 3.787-.504 5.673-1.002l.504 2.17c5.081-1.103 9.636-3.614 13.238-7.105v-1.023l-3.766-.834c.108-.323.169-.625.196-.903l3.85.84v1.642c.635-.633 1.239-1.297 1.809-1.99l-1.389-.324.14-1.12zm-41.044.602-.28-1.82.25-.039.28 1.82zm33.473-6.619c-1.202.978-2.521 1.8-2.571 1.85-.02.02-.069.036-.128.049-.01-.028-.022-.051-.028-.088-.038-.254.064-1.425.14-1.59.032-.07.097-.133.161-.186 1.122-.518 2.049-1.258 2.762-1.974-.017.463-.112 1.472-.336 1.939zm-.842 2.651-.138-.003c.006-.024.051-.219.114-.34h.024.024c.062.121.108.316.114.34zm.138.509-.138.003h-.023c-.036-.009-.072-.019-.109-.028.015-.062.054-.206.104-.307.009 0 .018 0 .028-.001.01 0 .018 0 .028.001.06.121.104.308.11.332zm-.138-1.028-.138-.003c.005-.024.049-.211.11-.333.009 0 .018 0 .028-.001.01 0 .018 0 .028.001.061.122.105.309.11.333zm0-.512-.138-.003c.004-.018.03-.128.068-.235.035-.025.072-.052.107-.077.055.122.095.29.1.312zm-.32 1.192c.021.001.046.003.074.004.001.001 0 .003.001.003.002.001.009.002.014.003-.011.009-.021.018-.029.027 0 0-.095.073-.165.216-.118-.025-.237-.051-.349-.073-.302-.061-.678-.137-.746-.187-.089-.089-.186-.27-.233-.368.219-.048.322-.115.38-.167.034-.023.093-.062.172-.115.175-.116.432-.287.732-.494-.005.076.042.113.148.12.021.001.046.003.074.004.001.001 0 .003.001.003.002.001.009.002.014.003-.011.009-.021.018-.029.027 0 0-.107.078-.177.238s-.033.226.117.236c.021.001.046.003.074.004.001.001 0 .003.001.003.003.002.012.003.021.004-.014.011-.026.022-.035.034 0 0-.107.078-.177.238s-.033.227.117.237zm-.539 2.028c-.4-.222-.746-.301-.965-.328.117-.274.184-.633.073-1.034-.063-.229-.121-.441-.164-.612.045.069.093.137.146.189.115.116.381.174.925.284.125.025.257.053.389.082-.183.136-.336.349-.408.658-.073.307-.046.565.004.761zm-12.968 7.773c-1.754 0-2.847-.661-3.087-.822v-1.127c.937.446 1.98.706 3.088.706 1.082 0 2.103-.25 3.024-.677v1.061c-.223.164-1.268.859-3.025.859zm2.584-.308-.54.778c-.131.189-.324.31-.543.34-.298.042-.801.093-1.508.093h-.05c-.707 0-1.21-.05-1.507-.093-.219-.031-.412-.152-.544-.34l-.528-.76c.552.253 1.436.543 2.636.543 1.189 0 2.048-.298 2.584-.561zm-2.583-3.933c-2.311 0-4.191-1.866-4.191-4.159s1.88-4.158 4.191-4.158 4.192 1.865 4.192 4.158-1.881 4.159-4.192 4.159zm4.648-4.159c0-2.544-2.085-4.615-4.648-4.615s-4.648 2.07-4.648 4.615c0 .869.248 1.681.671 2.376-.573-.795-.914-1.765-.914-2.814 0-2.676 2.194-4.853 4.891-4.853s4.891 2.177 4.891 4.853c0 1.049-.341 2.019-.913 2.813.423-.695.67-1.506.67-2.375zm-10.094-1.622c-.002-.055-.043-1.372.448-3.642.35-1.617.659-2.789.816-3.357.035-.073.067-.133.088-.156.115-.124.334.115.334.115s.004-.002.004-.002c-.172.727-.436 1.908-.728 3.44-.202 1.056-.336 2.051-.406 2.963-.129.213-.37.61-.461.774-.032.057-.056.111-.081.161.011-.112 0-.219-.014-.296zm-9.357-4.681c.206.008.31.002.368-.056.034-.034.142-.156.244-.298.02-.028.043-.06.066-.092 1.308 1.295 2.229 2.001 2.36 2.099.021.151-.178.276-.254.314-.001.001-.005.001-.006.002l.002-.005c-1.133-.504-2.063-1.247-2.78-1.964zm7.47.049c.439.716.735 1.697.833 2.761.048.53.042 1.048-.014 1.543-.094.04-.184.094-.253.167-.101.106-.149.233-.145.381.006.186.067.33.182.429.009.008.021.013.03.02-.28.937-.77 1.525-1.327 1.576-.694.066-1.567-.685-1.961-2.178.367.942.923 1.508 1.504 1.508.027 0 .053-.001.081-.004.459-.041.852-.431 1.104-1.098.242-.637.333-1.459.254-2.315-.078-.857-.315-1.649-.668-2.231-.347-.573-.772-.884-1.203-.884-.027 0-.054.001-.082.004-.495.044-.91.511-1.153 1.249.248-1.118.773-1.868 1.408-1.926.027-.002.054-.003.082-.003.459-.001.928.351 1.328 1.001zm.1-1.034c.153-.153.601 1.059.783 2.09.114.647.156 1.172.174 1.487-.107-.934-.364-1.792-.735-2.47-.022-.063-.043-.125-.069-.19-.315-.802-.306-.764-.153-.917zm1.022 10.354c-.098-.052-.187-.074-.26-.042-.08.035-.118.113-.126.184 0 .002-.001.048-.002.111-.213-.125-.705-.414-1.325-.772.023-.111.076-.309.176-.415.143-.153.267-.239.344-.219.076.019.735.429.945.573.21.143.239.382.239.382-.008.085-.001.147.009.198zm-.189 1.455c.003-.069.005-.138.007-.208l.462.092c0 .067.001.132.001.196zm.47.221c0 .073-.001.138-.002.193-.17-.026-.345-.048-.484-.061.004-.073.008-.148.011-.228zm-.458-.556c.013-.435.019-.842.02-.949.017.004.049.017.1.053.243.169.333.368.333.453l.001.203c.001.09.002.202.003.319zm-4.929-3.84-.028-.035c-.072-.09-.255-.368-.207-.753.153-.337.389-.575.439-.612.051-.038.293 0 .522 0s.293-.076.191-.127-.56.013-.56-.076c0-.074.035-.475.039-.642.166.069.348.108.54.108.033 0 .063-.007.095-.01.085.412.201.781.343 1.098-.102.018-.25.088-.296.181-.067.134.019.277.019.277s-.115-.067-.191-.153-.057-.239-.057-.239-.143.2-.143.344c0 .143 2.844 1.918 2.968 2.004s-.038-.01-.267.296c-.155.206-.205.338-.215.423-.946-.549-3.192-2.084-3.192-2.084zm.852.929c-.011.055-.026.124-.044.201-.292-.174-.617-.208-.839-.2-.02 0-.037.001-.055.002.035-.237.056-.436.069-.588.243.168.543.373.869.585zm.083-5.649c.65 0 1.177.527 1.177 1.177s-.527 1.177-1.177 1.177-1.177-.527-1.177-1.177.527-1.177 1.177-1.177zm-.051-.225s0-.001.001-.001h.001l-.002.001c.001 0 .001 0 0 0zm1.597 1.103c-.181-1.073-.679-1.265-.98-1.347-.057-.037-.118-.087-.174-.151.197-.781.578-1.291 1.015-1.331.019-.001.038-.002.058-.002.339 0 .688.268.988.763.333.55.558 1.304.633 2.124.074.818-.011 1.601-.239 2.202-.217.571-.534.904-.891.938-.02.001-.038.002-.057.002-.496 0-1.006-.581-1.329-1.507.116.032.252.045.379-.01.291-.129.788-.549.597-1.681zm-1.127 1.635-.095.031c0-.001 0-.001 0-.002.033-.008.063-.02.095-.029zm.354-5.952c-.678.135-.973.547-1.105.866.074-.32.168-.656.3-.837.267-.369.738-.598 1.247-.458.312.086.688.323.92.474-.226-.089-.566-.203-1.362-.045zm-1.085 2.345c.099.092.182.176.255.252-.011.059-.017.125-.027.186l-1.162.168c-.197-.15-1.088-.847-2.318-2.067.221-.072.948-.283 1.535-.45.637.775 1.437 1.648 1.717 1.911zm-1.158-3.079c-.051-.025-.916-.827-1.73-2.087-.453-.701-.803-1.299-1.028-1.699-.018-.039-.034-.076-.059-.122-.323-.596-.374-1.257-.165-1.236.137.014.204.07.287.192.741 1.357 1.82 3.056 3.261 4.662-.203.241-.523.311-.566.29zm-3.079-3.474c-.009.017-.029.024-.052.029-.735-1.532-.981-2.829-1.053-3.329l.004-.04.347-.015c.042.397.185 1.39.634 2.64.046.192.15.655.12.715zm.846 2.261c.17.237.557.809.974 1.454.129.199.321.455.543.732-1.317.375-1.514.446-1.555.467-.565-.572-1.285-1.406-1.696-2.284.283-.09 1.093-.278 1.734-.369zm2.634 11.272c.03-.003.065-.006.104-.007.211-.005.521.028.775.214-.014.053-.024.095-.041.154-.02.069-.044.143-.07.221-.186.575-.468 1.443.387 1.946.166.098.889.441 1.645.769.099.084.236.252.287.567.084.515-.053.83-.053.83s.231-.084.231-.735c0-.194-.028-.356-.072-.493.403.169.786.318 1.077.413.155.141.414.366.423.658.01.315-.095.672 0 .546.079-.105.092-.871.133-1.203.016-.045.025-.094.028-.145.031-.06.077-.087.118-.1.246.02.728.092.901.133.026.249-.029 1.372-.106 2.305-.358-.122-.742-.258-1.155-.414-2.562-.97-3.829-1.772-4.36-2.165-.034-.037-.068-.069-.068-.069s-.567-.829-.605-1.726c-.033-.81.287-1.186.421-1.699zm5.547-2.604c-.192.02-.513.057-.66-.071-.06-.052-.092-.133-.095-.247-.002-.078.023-.143.075-.198.155-.162.509-.203.635-.206.159.002.221.057.254.227.036.179.021.328-.039.41-.037.047-.092.076-.17.085zm.208-.911c-.071-.037-.152-.063-.254-.064h-.003c-.011 0-.142.003-.303.037.043-.437.048-.891.012-1.355.062.041.441.123.643.165-.062.536-.087.945-.095 1.217zm-.411-1.554s.019-1.622-.21-2.739.086-1.384.678-1.87c.592-.487 1.078-.506 1.097-.477.008.012 0 .211-.011.431-.172.649-.419 1.637-.691 2.895-.158.729-.261 1.358-.329 1.881zm3.213-1.179c-.717.477-1.307 1.127-1.712 1.889.064-.613.17-1.398.349-2.334.313-1.641.594-2.88.762-3.585.252-.1.662-.261 1.127-.439-.125 1.003-.4 3.327-.526 4.469zm.769-4.563c.687-.26 1.443-.535 1.973-.697v4.393c-.909.026-1.759.284-2.495.718.156-1.386.419-3.583.522-4.414zm-8.541-26.777c.235-.17.482-.335.742-.489.473-.281 1.024-.53 1.63-.748.136 1.798.479 6.954.601 14.657-.142.014-.517.084-.773.134v-1.517l-.182.026c-.697.097-.96.195-.971.2l-.102.039-.019 1.498c-.198.057-.385.113-.567.168.098-4.007-.295-12.601-.359-13.968zm20.998 13.967c-.181-.055-.368-.11-.566-.167l-.019-1.498-.102-.039c-.011-.004-.273-.103-.97-.2l-.183-.026v1.516c-.256-.05-.632-.12-.773-.134.122-7.702.465-12.859.601-14.657.606.219 1.157.467 1.63.748.26.155.508.32.743.49-.064 1.369-.458 9.961-.361 13.967zm.645 7.721c.083-.036.163-.073.233-.114.758-.442 1.397-1.639 1.595-2.041l.584.211c-.228.409-1.027 1.79-1.596 2.216zm.508.434c-.944.365-3.29.571-4.084.438-.46-.076-2.366-1.221-5.099-3.062-.338-.228-.596-.55-.765-.916.627.459 4.854 3.376 5.723 3.487.731.093 2.286.06 3.332-.245zm1.385-2.833c.017-2.519-.453-3.935-.614-4.343.549.204.894.353 1.037.418.048.464.258 2.627.156 4.134zm-.515-.12c-.134 1.298-1.489 2.195-3.397 2.233s-2.405-.248-4.065-1.164-2.615-1.699-2.691-1.813c-.076-.115-.324-2.233-.305-2.309s3.531-1.221 5.535-1.355c1.427-.095 3.295.517 4.042.888.311.155.531.437.606.776.148.672.366 1.862.275 2.744zm-3.542-5.347v-1.414c.312.049.508.095.615.124l.018 1.445c-.226-.058-.439-.109-.633-.155zm-17.193-16.022-.188-2.11c.668-.149 4.36-.926 8.498-.926h.166c4.35 0 8.213.859 8.58.944l-.269 2.093c-6.194-1.302-10.776-1.396-16.787-.001zm-.407 14.608v1.414c-.194.046-.407.097-.634.155l.018-1.445c.108-.029.304-.075.616-.124zm1.382 2.352c2.004.134 5.516 1.279 5.535 1.355s-.229 2.195-.305 2.309c-.076.115-1.031.897-2.691 1.813s-2.157 1.202-4.065 1.164c-1.909-.038-3.264-.935-3.397-2.233-.091-.882.127-2.072.276-2.745.075-.34.294-.622.606-.776.747-.37 2.614-.982 4.041-.887zm-5.439 4.529-.579.209c-.102-1.507.108-3.67.156-4.134.142-.065.487-.214 1.036-.418-.16.409-.63 1.824-.613 4.343zm.065.244c.198.401.837 1.598 1.595 2.041.07.041.15.078.233.114l-.817.272c-.569-.426-1.367-1.808-1.596-2.216zm2.214 2.292c1.046.305 2.601.339 3.333.245.869-.111 5.098-3.029 5.723-3.487-.169.366-.427.688-.765.916-2.733 1.841-4.639 2.985-5.099 3.062-.797.134-3.141-.072-4.084-.438zm7.737-7.159c-.885-.312-3.789-1.035-4.611-1.211-.124-7.827-.475-13.039-.609-14.781 2.073-.702 4.765-1.053 7.457-1.053.241 0 .438-.002.604-.005.167.003.363.005.604.005 2.692 0 5.383.351 7.457 1.053-.134 1.741-.485 6.953-.608 14.781-.823.176-3.726.899-4.611 1.211-.721.253-1.928.678-2.256.678h-1.171c-.328 0-1.535-.424-2.256-.678zm5.505 16.543c-.743-.444-1.603-.709-2.525-.736v-4.389c.537.164 1.305.442 2.001.702.106.846.372 3.066.524 4.423zm-.282-4.332c.465.176.874.334 1.126.433.169.705.45 1.944.762 3.584.186.974.293 1.782.356 2.402-.401-.779-.991-1.446-1.715-1.935-.114-1.039-.399-3.447-.529-4.484zm2.115 3.975c-.292-1.532-.556-2.713-.728-3.44 0 0 .004.002.004.002s.219-.239.334-.115c.021.023.053.083.088.156.158.568.467 1.74.816 3.357.491 2.27.451 3.587.448 3.642-.011.061-.019.14-.018.226-.014-.029-.029-.059-.047-.09-.1-.181-.38-.642-.495-.83-.051-.658-.163-1.647-.402-2.908zm.76-.093c-.271-1.258-.519-2.246-.691-2.895-.012-.22-.02-.418-.011-.431.019-.029.506-.01 1.097.477.592.487.907.754.678 1.87s-.21 2.739-.21 2.739l-.533.12c-.068-.522-.172-1.151-.33-1.88zm9.687-6.704c-.03-.06.074-.524.119-.715.449-1.25.593-2.242.634-2.64l.347.015.004.04c-.072.499-.318 1.796-1.053 3.329-.022-.005-.042-.012-.051-.029zm.888 2.63c-.408.876-1.129 1.711-1.696 2.284-.041-.021-.239-.093-1.555-.467.222-.277.414-.532.543-.732.416-.645.803-1.217.974-1.454.642.091 1.451.279 1.734.369zm-1.15-3.064c-.025.046-.041.083-.059.123-.225.4-.575.998-1.028 1.699-.814 1.26-1.68 2.061-1.73 2.087-.042.021-.363-.048-.566-.289 1.441-1.606 2.521-3.305 3.261-4.662.084-.123.151-.178.287-.192.209-.024.159.637-.165 1.234zm-2.257 5.075c.586.167 1.314.378 1.535.45-1.23 1.22-2.122 1.917-2.319 2.067l-1.162-.168c-.01-.061-.015-.126-.027-.185.072-.076.156-.16.255-.252.281-.263 1.081-1.136 1.718-1.912zm-1.104 7.726v.007c-.105.071-2.26 1.542-3.181 2.076-.01-.085-.061-.217-.215-.423-.229-.305-.391-.21-.267-.296s2.968-1.861 2.968-2.004-.143-.344-.143-.344.019.153-.057.239-.191.153-.191.153.086-.143.019-.277c-.046-.092-.194-.163-.296-.181.143-.316.258-.685.343-1.098.032.002.063.01.095.01.191 0 .373-.039.54-.108.004.167.039.568.039.642 0 .089-.458.025-.56.076s-.038.127.191.127.471-.038.522 0c.049.037.271.263.424.584.073.489-.231.817-.231.817zm.086.93c-.222-.01-.559.017-.863.199-.019-.081-.036-.156-.047-.213.314-.205.604-.402.841-.567.013.152.034.348.069.581zm-5.001 3.038c.002.07.005.139.007.208l-.47.081c0-.064 0-.13.001-.196zm-.461-.049c.001-.117.002-.229.003-.319l.001-.203c0-.085.09-.283.333-.453.051-.036.083-.048.1-.053.001.107.007.513.02.949zm.473.382c.003.08.007.156.011.229-.141.013-.316.036-.484.062-.001-.056-.002-.122-.002-.197zm-.159-1.598c.008-.048.013-.105.007-.183-.008-.102.049-.209.142-.32.021-.021.038-.044.065-.062.21-.143.868-.553.945-.573.076-.019.2.067.344.219.1.107.153.305.176.415-.62.358-1.113.647-1.325.772-.001-.063-.002-.109-.002-.111-.009-.07-.046-.149-.126-.184-.065-.027-.142-.01-.226.027zm3.812-4.879-.095-.031c.032.01.062.022.095.029zm.324-.19c-.65 0-1.177-.527-1.177-1.177s.527-1.177 1.177-1.177 1.177.527 1.177 1.177-.527 1.177-1.177 1.177zm-.948.203c.126.055.263.042.379.01-.334.961-.865 1.542-1.385 1.505-.358-.034-.675-.366-.892-.938-.228-.601-.313-1.384-.239-2.202.075-.82.3-1.574.633-2.124.3-.494.648-.763.988-.763.02 0 .039.001.058.002.437.041.818.551 1.015 1.332-.057.064-.117.113-.174.151-.301.082-.799.274-.98 1.347-.191 1.133.305 1.553.597 1.68zm.997-2.783c.001 0 .001 0 .001.001.001 0 0 0-.001-.001zm-.822-3.213c-.796-.158-1.136-.044-1.362.045.232-.151.609-.389.92-.474.509-.14.98.089 1.247.458.132.182.226.517.3.837-.132-.319-.426-.731-1.105-.866zm-.864.56c.635.058 1.16.808 1.408 1.926-.244-.738-.659-1.205-1.153-1.249-.471-.051-.916.271-1.285.88-.353.582-.59 1.375-.668 2.231-.079.857.012 1.679.254 2.315.253.667.645 1.057 1.105 1.098.027.003.053.004.08.004.581 0 1.138-.566 1.504-1.509-.394 1.494-1.268 2.245-1.962 2.179-.558-.051-1.048-.639-1.327-1.576.01-.007.021-.012.03-.02.114-.1.176-.244.182-.429.004-.148-.044-.275-.145-.381-.07-.073-.16-.126-.253-.167-.056-.491-.062-1.008-.014-1.543.098-1.065.394-2.046.833-2.761.423-.687.936-1.032 1.411-.998zm-1.664.881c-.025.065-.046.126-.068.189-.372.678-.629 1.535-.736 2.469.018-.315.061-.84.174-1.484.181-1.031.63-2.243.783-2.09s.162.115-.153.916zm-.837 2.988c-.035.467-.031.92.012 1.355-.161-.034-.292-.037-.303-.037h-.003c-.101.001-.182.026-.254.064-.008-.272-.033-.681-.096-1.216.202-.043.581-.126.644-.166zm-.548 1.797c.033-.17.095-.225.254-.227.125.003.48.044.635.206.052.055.077.12.075.198-.003.113-.035.194-.095.247-.147.127-.469.091-.66.071-.078-.009-.133-.037-.169-.086-.06-.082-.075-.231-.04-.409zm.804 6.733c.041.013.088.04.118.1.004.05.012.099.028.145.04.332.054 1.099.133 1.203.095.126-.01-.231 0-.546.01-.292.268-.517.423-.658.291-.095.674-.244 1.077-.413-.043.137-.072.299-.072.493 0 .651.231.735.231.735s-.137-.315-.052-.83c.051-.314.188-.482.287-.567.757-.328 1.479-.671 1.645-.769.854-.503.573-1.371.387-1.946-.026-.078-.049-.152-.069-.221-.018-.064-.029-.11-.044-.166.293-.204.653-.213.849-.198.134.514.455.89.42 1.699-.035.831-.617 1.714-.703 1.84-.565.408-1.832 1.186-4.298 2.12-.413.156-.797.293-1.155.414-.077-.933-.132-2.055-.106-2.305.173-.038.655-.109.901-.13zm5.264-9.796c.132-.099 1.053-.805 2.36-2.099.023.032.046.064.066.092.103.142.21.264.244.298.058.058.162.064.368.056-.716.718-1.647 1.46-2.781 1.964l.002.005c-.001-.001-.005-.001-.006-.002-.075-.038-.274-.163-.253-.314zm4.506-1.187c-.297.428-.766.891-1.283 1.335.176-.672.224-1.624.216-1.883.456-.484.813-.943 1.064-1.297.006.087.02.19.051.222.057.057.506.258.553.191.035-.049.763-1.58 1.16-2.416-.381 1.17-1.021 2.778-1.761 3.848zm1.479-3.77c-.496 1.078-1.05 2.071-1.05 2.071l-.2-.115-.004-.366v-.433c-.08.138-.583.977-1.463 1.911-.044-.001-.096 0-.164.003-.09.004-.254.014-.293-.001-.001-.008-.134-.165-.199-.255-.035-.048-.063-.087-.088-.121.595-.602 1.366-1.493 1.787-2.431.008-.018.014-.032.012-.032v.001l.016-.131c-.02-.045-.136-.097-.305-.151.364.067.687.133.838.167.103.024.181.036.244.04l-.113.234-.01.525s.648-1.274.882-1.774c.136-.267.283-.56.414-.819.03-.011.062-.021.107-.021.105 0 .2.115.181.181-.019.067-.095.439-.592 1.517zm-.095-12.949c.034-.079.094-1.44.138-2.539.055.283.104.525.138.65.115.42-.153.401-.095.573.057.172 1.241 6.298 1.279 6.699.021.225-.047 1.373-.149 2.426-.129.514-.383 1.46-.649 2.09-.382.903-1.056 2.138-1.107 2.201-.051.064-.229-.038-.229-.038l.382-.827-.484.674s-.865-.178-.891-.216c-.025-.038.089-.394.089-.394s-.242.445-.293.433c-.051-.013-.178-.064-.178-.064s.382-.725.407-.954-.05-1.477-.05-1.477l-.089.14s-.038 1.247-.051 1.298-.458.954-.458.954l-.229-.038.056-.93c.682-1.422.95-2.646 1.049-3.241l.015-.053 1.781.102s.127-1.018.178-1.985-.051-1.552-.051-1.552.045 1.221-.165 1.336-.611-.095-.668-.706.038-4.313.038-4.313.229-.116.286-.249zm-.237-4.326c.005.011.013.021.017.031.027.07.069.261.118.505 0 .054.002.114.006.183.057 1.031-.153 3.474-.153 3.474s-.305.248-.344-.706c-.038-.954-.305-2.462-.305-2.462s.267 2.863.305 5.478-.363 3.092-.363 3.092c.153-.802.115-2.748.076-3.741-.038-.992-.267-4.371-.267-4.371-.057.935.076 4.122.038 6.184-.038 2.061-.42 2.92-.42 2.92s.21-1.947.134-3.054-.229-3.836-.344-5.592c-.02-.314-.043-.591-.066-.85-.036-.738-.071-1.616-.042-1.841.051-.407.458-.14.509.305s.229.814.229.814-.089-.522.242-.598c.315-.073.469.019.63.229zm-.486-.584c-.156-.006-.275.037-.308.087-.051.076-.102-.318-.242-.509-.13-.177-.056-.296.158-.343.251.191.353.55.392.765zm-2.77-4.976c.172.057.515.496.63.592.115.095.191-.134.115-.401 0-.331-.458-.979-.28-.992s.331.229.229-.064-.598-1.234-.547-1.361.165-.127.662-.076c.183.019.314.076.406.14.382 2.34.865 5.381.982 6.116-.05.037-.099.08-.141.132-.178.216-.254.293-.344.254-.089-.038-.089-.763-.534-1.629-.314-.61-.813-1.264-1.083-1.601-.115-.748-.186-1.141-.095-1.11zm-1.317 4.103c.115.229.821.687.973.878.153.191.363 2.863.573 3.97s.782 1.546.782 1.546c-.324-.553-.363-1.164-.363-1.164s-.038-2.958-.229-5.458c-.063-.826-.149-1.533-.23-2.11.008.011.012.019.02.03.522.725.929 1.043 1.081 2.048.093.613.191 2.173.253 3.296.062 1.828.153 4.317.23 5.782.06 1.126-.003 2.071-.09 2.774-.003-.201-.009-.428-.025-.706-.076-1.374-.433-4.11-.547-4.161 0 0 .254 2.685.293 3.766.025.702.011 1.215-.032 1.618-.053.144-1.622 4.289-4.952 7.74-.234-.016-.73-.086-1.289.032-.624.131-1.058.573-1.208.75-.036.011-.072.019-.109.02-.277.01-.372-.134-2.262-1.04-1.675-.804-4.883-1.651-5.59-1.833v-8.923c.175-.011.317-.026.317-.026l.346.173.221 1.339c.113.686.509 1.301 1.085 1.689 2.018 1.359 4.562 3.002 5.225 3.113.187.031.444.046.743.046 1.255 0 3.244-.261 3.839-.663.73-.494 1.763-2.4 1.807-2.481l.019-.062c.152-1.714-.14-4.367-.153-4.479l-.01-.087-.079-.039c-.042-.021-.934-.454-2.927-1.068-.101-3.818.266-12.044.351-13.858 1.528 1.178 2.445 2.544 2.524 2.799.095.305.42 3.722.344 3.722s-.992-.725-.992-.668c.004.054-.053 1.466.061 1.695zm.81-6.902c.097.481-.025.875-.237.7-.205-.169-1.143-.892-1.689-1.311-1.084-1.038-2.29-2.063-3.095-2.348.001-.262.172-1.596.212-2.018 1.282 1.037 4.104 4.184 4.809 4.977zm-27.036-.736c.601-.826 1.496-2.024 2.229-2.86 1.221-1.393 2.233-2.348 2.615-2.424s2.748-1.088 7.94-1.088h1.161c5.191 0 7.558 1.012 7.94 1.088s1.393 1.031 2.615 2.424c.745.85 1.66 2.075 2.26 2.902.001.002.002.004.003.006-1.153-1.283-3.577-3.93-4.598-4.658l-.043-.021c-.04-.009-4.089-.957-8.669-.957h-.166c-4.58 0-8.629.948-8.669.957l-.043.021c-1.02.728-3.444 3.375-4.597 4.658.006-.015.017-.033.022-.048zm-.298.735c.72-.81 3.649-4.074 4.888-5.039.016.37.134 1.82.133 2.083-.786.292-1.96 1.281-3.028 2.293-.532.408-1.543 1.186-1.756 1.362-.212.176-.334-.218-.237-.699zm-.163 7.781c.153-.191.859-.649.973-.878s.057-1.641.057-1.699c0-.057-.916.668-.992.668s.248-3.416.344-3.722c.08-.254.996-1.622 2.525-2.799.084 1.813.45 10.041.35 13.859-1.993.615-2.885 1.047-2.926 1.068l-.079.039-.01.087c-.013.112-.305 2.765-.153 4.479l.019.062c.043.081 1.077 1.987 1.807 2.481.595.403 2.584.663 3.839.663.299 0 .556-.015.743-.046.663-.111 3.207-1.754 5.225-3.113.576-.387.972-1.003 1.085-1.688l.221-1.339.346-.173c.063.024.172.033.291.034v8.912c-.673.175-3.878 1.027-5.564 1.836-1.889.907-1.985 1.05-2.262 1.04-.037-.001-.072-.009-.109-.02-.15-.177-.584-.619-1.208-.75-.559-.118-1.054-.047-1.288-.032-3.33-3.452-4.899-7.597-4.952-7.74-.043-.403-.057-.916-.032-1.618.038-1.082.293-3.766.293-3.766-.115.051-.471 2.786-.547 4.161-.015.278-.022.505-.025.706-.087-.703-.15-1.648-.09-2.774.078-1.465.168-3.953.23-5.782.062-1.124.16-2.683.253-3.297.153-1.005.56-1.323 1.082-2.048.008-.011.012-.019.02-.03-.081.578-.167 1.284-.23 2.11-.191 2.5-.229 5.458-.229 5.458s-.038.611-.363 1.164c0 0 .573-.439.783-1.546.21-1.104.42-3.776.573-3.967zm-1.57-7.136c.093-.068.227-.129.418-.148.496-.051.611-.051.662.076s-.445 1.069-.547 1.361c-.102.293.051.051.229.064s-.28.662-.28.992c-.076.267 0 .496.115.401s.458-.534.63-.592c.091-.03.02.363-.094 1.109-.27.337-.769.99-1.083 1.601-.445.865-.445 1.59-.534 1.629-.089.038-.165-.038-.344-.254-.045-.055-.097-.101-.15-.139.118-.748.598-3.769.978-6.1zm-1.159 6.364c.22.046.296.166.165.345-.14.191-.191.585-.242.509-.034-.051-.157-.096-.318-.087.04-.216.142-.576.395-.767zm-1.012 2.07c.005-.091.006-.163.005-.229.045-.222.084-.393.109-.458.172-.235.324-.337.655-.261s.242.598.242.598.178-.369.229-.814.458-.713.509-.305c.028.226-.006 1.103-.042 1.841-.023.259-.045.536-.066.85-.115 1.756-.267 4.485-.344 5.592-.076 1.107.134 3.054.134 3.054s-.382-.859-.42-2.92.095-5.249.038-6.184c0 0-.229 3.378-.267 4.371-.038.992-.076 2.939.076 3.741 0 0-.401-.477-.363-3.092s.305-5.478.305-5.478-.267 1.508-.305 2.462-.344.706-.344.706-.208-2.444-.151-3.474zm-1.422 11.351c-.098-1.035-.164-2.142-.143-2.362.038-.401 1.221-6.527 1.279-6.699.057-.172-.21-.153-.095-.573.036-.131.088-.39.146-.692.044 1.106.106 2.502.14 2.582.057.134.286.248.286.248s.095 3.703.038 4.313c-.057.611-.458.821-.668.706s-.165-1.336-.165-1.336-.102.585-.051 1.552.178 1.985.178 1.985l1.781-.102.015.053c.098.595.367 1.82 1.049 3.241l.056.93-.229.038s-.445-.903-.458-.954-.051-1.298-.051-1.298l-.089-.139s-.076 1.247-.051 1.476.407.954.407.954-.127.051-.178.064-.293-.433-.293-.433.115.356.089.394c-.025.038-.891.216-.891.216l-.483-.674.382.827s-.178.102-.229.038-.725-1.298-1.107-2.201c-.278-.658-.542-1.658-.665-2.154zm.821 3.507c.045 0 .077.011.107.021.131.259.279.552.414.82.234.501.881 1.774.881 1.774l-.01-.525-.113-.234c.063-.004.14-.016.244-.04.151-.034.474-.099.837-.167-.169.053-.285.105-.305.15l-.035.062.043.058c.005.008.011.024.021.044.424.94 1.193 1.828 1.785 2.428-.025.034-.053.073-.088.121-.065.09-.198.247-.199.255-.039.015-.204.005-.293.001-.068-.003-.119-.004-.164-.003-.88-.934-1.383-1.773-1.463-1.911v.433l-.004.366-.2.115s-.553-.992-1.05-2.071c-.496-1.078-.573-1.451-.592-1.517-.017-.066.079-.18.184-.18zm1.88 5.468c-.755-1.09-1.406-2.74-1.783-3.914.388.818 1.156 2.433 1.192 2.483.048.067.496-.134.553-.191.032-.032.045-.135.052-.222.251.354.607.812 1.064 1.297-.008.26.04 1.222.218 1.894-.523-.449-.997-.915-1.296-1.347zm4.198 3.473c-.049-.049-1.357-.865-2.555-1.837-.229-.461-.324-1.485-.342-1.952.713.716 1.64 1.457 2.762 1.974.064.052.129.115.161.186.076.165.178 1.336.14 1.59-.006.038-.018.061-.028.089-.064-.012-.116-.028-.138-.05zm-.853 1.49c.543-.11.809-.168.925-.284.034-.034.066-.076.098-.119-.04.154-.089.334-.141.52-.115.416-.047.781.07 1.059-.22.03-.555.113-.937.325.05-.196.076-.454.004-.761-.072-.309-.226-.522-.408-.658.132-.029.264-.057.389-.082zm-2.297 1.435c.363-.727.677-1.01 1.342-1.212.056-.017.121-.031.181-.047.211.053.453.215.548.62.126.54-.096.9-.123.942-.27.207-.437.488-.494.823-.166-.159-.441-.319-.903-.352-.411-.03-.66.107-.818.277.034-.525.189-.895.267-1.051zm3.105 6.036c-1.759-1.193-2.644-2.327-3.057-3.287.043-.124.124-.234.28-.294.557-.217.672-.107 1.388.821.719.93 1.63 1.536 1.669 1.561.215.142.531.406.563.545.035.158.009.399-.132.556-.106.118-.26.167-.459.145-.089-.01-.172-.027-.252-.047zm1.819 1.098c-.455-.245-.91-.513-1.367-.805.217-.028.361-.127.447-.222.201-.224.24-.553.19-.779-.064-.288-.569-.635-.67-.701-.009-.006-.916-.609-1.608-1.506-.69-.893-.923-1.193-1.679-.902-.136.053-.232.132-.306.224-.109-.318-.168-.615-.192-.884.032-.167.171-.572.793-.532.771.055.904.504.909.523h.001c.082.936.873 2.006 2.11 2.825.015.019.559.567 2.242 1.395-.208.085-.459.247-.642.557-.181.304-.227.592-.228.807zm.526.277c-.089-.044-.177-.093-.266-.139-.02-.174-.014-.48.185-.817.245-.414.636-.502.77-.521.06.028.122.057.184.085-.209.085-.461.246-.646.558-.188.319-.23.616-.227.834zm.26.124c-.022-.172-.021-.483.184-.828.258-.435.681-.511.792-.524.473.209 1.006.43 1.617.661.951.36 1.764.624 2.411.814-.12.19-.351.67-.372 1.495-1.542-.365-3.083-.87-4.632-1.618zm4.883 1.677c.012-.972.341-1.434.377-1.481.107.03.21.059.306.085-.127.216-.331.691-.347 1.47-.112-.025-.224-.049-.336-.074zm.587.126c.008-.855.261-1.319.352-1.455.106.027.204.052.292.073-.122.199-.334.668-.359 1.442-.096-.019-.19-.041-.285-.06zm4.075.633c-1.185-.144-2.364-.306-3.54-.527.022-.913.322-1.361.371-1.427.227.051.353.073.357.074l.042-.249c-.012-.002-.989-.174-2.66-.725.191-2.284.091-2.591-.007-2.634-.042-.019-.154-.043-.29-.068.003-.15.003-.393.001-.628.469.605 1.025 1.14 1.661 1.571v.614l-1.12-.462v.616l1.092.35v.672l.406.154v-1.344l.15-.284c.058.033.112.072.172.103v1.371l.049.039c.01.007.076.053.172.113l.803 1.156c.173.248.427.406.716.447.305.043.821.095 1.543.095h.05c.72 0 1.238-.051 1.544-.095.289-.041.543-.2.715-.447l.828-1.192-.008-.005c.09-.062.153-.109.162-.117l.044-.038v-1.295c.073-.037.143-.079.214-.119l.142.27v1.344l.406-.154v-.672l1.092-.35v-.616l-1.12.462v-.597c.659-.442 1.236-.992 1.716-1.62-.002.245-.002.507.001.664-.126.024-.229.047-.269.064-.098.044-.198.351-.007 2.634-1.671.551-2.648.723-2.66.725l.042.249c.004-.001.094-.017.259-.052.081.12.34.575.357 1.427-1.137.207-2.278.363-3.426.503zm3.679-.553c-.022-.762-.223-1.228-.347-1.439.088-.021.186-.044.295-.072.102.164.332.629.336 1.454-.095.019-.19.039-.284.057zm.534-.109c-.012-.765-.204-1.238-.332-1.467.098-.026.2-.053.31-.084.083.123.353.593.359 1.481-.112.024-.225.046-.337.07zm5.331-1.774c-1.586.766-3.164 1.278-4.744 1.644-.015-.801-.23-1.284-.356-1.494.663-.192 1.507-.463 2.507-.841.612-.232 1.144-.452 1.617-.661.111.013.534.089.792.524.205.345.206.656.184.828zm.527-.263c-.089.046-.178.095-.266.139.003-.217-.039-.515-.227-.833-.185-.312-.437-.474-.646-.558.062-.029.124-.057.184-.085.134.019.524.107.77.521.199.336.205.641.185.816zm2.078-1.236c-.079.02-.162.037-.25.047-.199.022-.354-.027-.459-.145-.141-.156-.167-.398-.132-.556.031-.14.348-.403.563-.545.038-.026.95-.631 1.669-1.561.716-.927.831-1.037 1.388-.821.155.06.236.17.28.294-.415.96-1.3 2.094-3.059 3.287zm3.174-3.593c-.074-.092-.17-.172-.306-.224-.755-.291-.988.009-1.679.902-.692.896-1.599 1.499-1.608 1.506-.101.067-.606.414-.67.701-.05.226-.011.555.19.779.085.095.23.194.447.222-.456.293-.912.561-1.367.805-.001-.215-.047-.503-.228-.808-.184-.31-.435-.472-.642-.557 1.683-.828 2.228-1.376 2.242-1.395 1.236-.818 2.028-1.889 2.11-2.825h.001c.005-.019.138-.467.909-.523.622-.04.761.365.793.532-.023.27-.082.567-.192.885zm-.619-1.668c-.462.033-.737.192-.903.352-.057-.336-.224-.616-.494-.823-.028-.042-.249-.402-.123-.942.095-.405.337-.567.548-.62.06.016.124.029.181.047.666.202.979.485 1.342 1.212.078.156.232.526.267 1.052-.157-.171-.406-.307-.818-.278zm4.125 1.07-.25-.038.28-1.82.25.039z"/><path d="m42.818 10.943-.09-2.21.194.215.145 2.037z"/><path d="m21.452 8.574-.062 2.328-.25.124.083-2.182z"/></g></svg>