<svg enable-background="new 0 0 72 72" height="72" viewBox="0 0 72 72" width="72" xmlns="http://www.w3.org/2000/svg" xmlns:xlink="http://www.w3.org/1999/xlink"><pattern id="a" height="3.8" overflow="visible" patternUnits="userSpaceOnUse" viewBox=".4 -4.2 3.8 3.8" width="3.8" x=".5" y="72.5"><path d="m.4-.4h3.8v-3.8h-3.8z" fill="none"/><path d="m.4-.4h3.9v-3.901h-3.9z" fill="none"/><path d="m3.7-4.301c0-.199-.2-.399-.4-.399s-.4.2-.4.399c0 .201.2.4.4.4.2.001.4-.099.4-.4z"/><path d="m1.8-4.301c0-.199-.2-.399-.4-.399s-.4.2-.4.399c0 .201.2.401.4.401s.4-.1.4-.401z"/><path d="m4.7-2.4c0-.199-.2-.4-.4-.4s-.5.201-.5.4c0 .2.2.5.5.5s.4-.2.4-.5z"/><path d="m2.8-2.4c0-.199-.2-.4-.4-.4s-.5.201-.5.4c0 .2.2.4.4.4s.5-.1.5-.4z"/><path d="m.8-2.4c0-.199-.2-.4-.4-.4-.2-.001-.4.2-.4.4s.2.4.4.4.4-.1.4-.4z"/><path d="m3.7-.4c0-.199-.2-.4-.4-.4s-.4.101-.4.4c0 .3.2.4.4.4s.4-.2.4-.4z"/><path d="m1.8-.4c0-.199-.2-.4-.4-.4-.2-.001-.4.1-.4.4s.2.4.4.4.4-.2.4-.4z"/></pattern><pattern id="b" patternTransform="matrix(1 0 0 -1 -270.2896 -16032.168)" xlink:href="#a"/><path d="m55.9 11.8h11.399v20.7h-11.399z" fill="#fff"/><path d="m5 12.1h11.6v20.7h-11.6z" fill="#fff"/><path d="m31.6 13.5c-.6 0-1-.4-1-1v-3c0-1.3-1-2.3-2.3-2.3h-14.4c-1.3 0-2.3 1-2.3 2.3v1.7c0 .6-.4 1-1 1s-1-.4-1-1v-1.8c0-2.4 1.9-4.3 4.3-4.3h14.4c2.4 0 4.3 1.9 4.3 4.3v3c0 .6-.5 1.1-1 1.1z" fill="#faaf42"/><path d="m40.7 13.5c-.601 0-1-.4-1-1v-3c0-2.4 1.899-4.3 4.3-4.3h14.4c2.399 0 4.3 1.9 4.3 4.3v1.7c0 .6-.4 1-1 1-.601 0-1-.4-1-1v-1.8c0-1.3-1-2.3-2.3-2.3h-14.4c-1.3 0-2.3 1-2.3 2.3v3c0 .6-.4 1.1-1 1.1z" fill="#faaf42"/><circle cx="36.2" cy="11.8" fill="#be202e" r="3.6"/><path d="m36.2 16.4c-2.5 0-4.6-2.1-4.6-4.6s2.1-4.6 4.6-4.6 4.6 2.1 4.6 4.6-2.1 4.6-4.6 4.6zm0-7.2c-1.4 0-2.6 1.2-2.6 2.6s1.2 2.6 2.6 2.6c1.399 0 2.6-1.2 2.6-2.6s-1.2-2.6-2.6-2.6z"/><path d="m53.6 37.9c-.1 0-.199 0-.3 0v-10.6c0-8.1-6.6-14.7-14.7-14.7h-4.6c-8.1 0-14.7 6.6-14.7 14.7v10.7c-.2 0-.4-.1-.7-.1-2.7 0-4.8 2.199-4.8 4.8 0 2.7 2.2 4.8 4.8 4.8.2 0 .4 0 .7-.1v2.4c0 8.101 6.6 14.7 14.7 14.7h4.5c8.1 0 14.7-6.6 14.7-14.7v-2.4h.3c2.7 0 4.8-2.2 4.8-4.801.1-2.499-2.1-4.699-4.7-4.699z" fill="#f9e2b8"/><path d="m36.4 31.5c6.2 0 12.2 2.1 16.9 4.2v-8.5c0-8.1-6.6-14.7-14.7-14.7h-4.6c-8.1 0-14.7 6.6-14.7 14.7v7.3c4.7-1.5 10.9-3 17.1-3z" fill="#be202e"/><path d="m25.9 32.8c-.5 0-1-.4-1-1s-.2-15.4 8.8-19.4c.5-.2 1.1 0 1.3.5s0 1.1-.5 1.3c-7.7 3.4-7.6 17.4-7.6 17.5 0 .7-.5 1.1-1 1.1z"/><path d="m46.7 32.8c-.601 0-1-.5-1-1 0-.1.1-14.1-7.601-17.5-.5-.2-.699-.8-.5-1.3.2-.5.801-.7 1.301-.5 8.899 4 8.8 18.7 8.8 19.4 0 .5-.5.9-1 .9z"/><path d="m49.6 36.7v3.4c0 5.7-5.2 10.3-11.6 10.3h-3.5c-6.4 0-11.6-4.601-11.6-10.301v-3.8l-3.6 1.101v12.5c0 8.1 6.6 14.7 14.7 14.7h4.5c8.1 0 14.7-6.6 14.7-14.699v-11.701z" fill="#c49a6c"/><path d="m43.2 48.4h-11.2c-.6 0-1-.4-1-1 0-.601.4-1 1-1h8.7c-7.2-7.4-5.1-14.3-5-14.601.2-.5.7-.8 1.3-.6.5.2.8.7.6 1.3-.1.3-2.1 7.1 6.301 14.3.3.3.399.7.3 1.101-.201.2-.501.5-1.001.5z"/><path d="m52.4 38.3c-4.101-2.7-9.9-4.3-16-4.3-5.9 0-11.5 1.4-15.6 4.1l-2.7-4.2c4.9-3.1 11.4-4.9 18.3-4.9 7.1 0 13.8 1.8 18.8 5.1z" fill="#821429"/><ellipse cx="10.7" cy="22.6" fill="#be202e" rx="4.8" ry="6.9"/><path d="m5 12.1h11.4v2.3h-11.4z" fill="#bbbdbf"/><path d="m4.8 30.4h11.8v2.4h-11.8z" fill="#bbbdbf"/><path d="m13.3 34.3h-5.2c-2.6 0-4.8-2.1-4.8-4.8v-14.2c0-2.6 2.1-4.8 4.8-4.8h5.2c2.6 0 4.8 2.1 4.8 4.8v14.2c0 2.6-2.2 4.8-4.8 4.8zm-5.2-21.7c-1.5 0-2.8 1.2-2.8 2.8v14.2c0 1.5 1.2 2.8 2.8 2.8h5.2c1.5 0 2.8-1.2 2.8-2.8v-14.3c0-1.5-1.2-2.8-2.8-2.8h-5.2z"/><ellipse cx="61.8" cy="22.6" fill="#be202e" rx="4.8" ry="6.9"/><path d="m52.3 61.6c-.7 0-1.399 0-2.1-.1-.5-.1-.9-.6-.9-1.1.101-.5.601-.9 1.101-.9.6.1 1.199.1 1.899.1 6.9 0 12.2-5.1 12.2-11.6 0-6.4-3.4-13.4-3.4-13.4-.199-.5 0-1.1.5-1.3s1.101 0 1.301.5c.1.3 3.6 7.4 3.6 14.3.099 7.5-6.201 13.5-14.201 13.5z" fill="#faaf42"/><path d="m55.9 12.2h11.399v2.3h-11.399z" fill="#bbbdbf"/><path d="m55.6 30.4h11.5v2.4h-11.5z" fill="#bbbdbf"/><path d="m64.2 34.3h-5.2c-2.6 0-4.8-2.1-4.8-4.8v-14.2c0-2.6 2.1-4.8 4.8-4.8h5.2c2.6 0 4.8 2.1 4.8 4.8v14.2c-.1 2.6-2.2 4.8-4.8 4.8zm-5.2-21.7c-1.5 0-2.8 1.2-2.8 2.8v14.2c0 1.5 1.2 2.8 2.8 2.8h5.2c1.5 0 2.8-1.2 2.8-2.8v-14.3c0-1.5-1.2-2.8-2.8-2.8h-5.2z"/><ellipse cx="30.1" cy="40.1" rx="1.2" ry="1.9"/><ellipse cx="43.8" cy="40.1" rx="1.2" ry="1.9"/><path d="m38.5 68.2h-4.5c-8.9 0-16.7-8-17.2-17.2-3.4-1-5.8-4.2-5.8-7.9 0-3.699 2.4-6.8 5.8-7.899v-7.9c-.1-9.601 7.7-17.301 17.2-17.301h4.5c9.5 0 17.2 7.7 17.2 17.2v7.9c3.399 1 5.8 4.2 5.8 7.9s-2.5 6.9-5.8 7.9c-.5 9.3-8.3 17.3-17.2 17.3zm-19.3-21.9c.6 0 1.2.2 1.7.7s.8 1.1.8 1.8v1.1c0 7.1 5.7 13.2 12.2 13.2h4.5c6.5 0 12.2-6.2 12.2-13.2v-1.1c0-1.399 1.101-2.5 2.5-2.5h.1c1.8 0 3.2-1.5 3.2-3.2 0-1.699-1.4-3.199-3.2-3.199h-.1c-1.399 0-2.5-1.101-2.5-2.5v-10c0-6.8-5.5-12.2-12.199-12.2h-4.401c-6.8 0-12.2 5.5-12.2 12.2v10c0 1.399-1.1 2.5-2.5 2.5h-.1c-1.8 0-3.2 1.5-3.2 3.199-.1 1.7 1.4 3.1 3.2 3.2z"/><path d="m19.6 34.7c-.4 0-.7-.2-.9-.5-.3-.5-.1-1.1.4-1.4.3-.2 7.2-3.8 17.4-3.8s15.8 3.6 16 3.7c.5.3.6.9.3 1.4s-.9.6-1.4.3c0 0-5.4-3.4-14.9-3.4-9.6 0-16.4 3.5-16.4 3.6-.1 0-.3.1-.5.1z"/><path d="m20.3 38.9c-.3 0-.7-.2-.9-.5-.3-.5-.1-1.101.3-1.4.3-.2 7-4.2 16.7-4.2s15.5 3.9 15.7 4.101c.5.299.6.899.3 1.399s-.9.6-1.4.3c-.1 0-5.5-3.7-14.6-3.7-9.2 0-15.6 3.9-15.7 3.9 0 .1-.2.1-.4.1z"/><path d="m49.6 36.7v3.4c0 5.7-5.2 10.3-11.6 10.3h-3.5c-6.4 0-11.6-4.601-11.6-10.301v-3.8l-3.6 1.101v12.5c0 8.1 6.6 14.7 14.7 14.7h4.5c8.1 0 14.7-6.6 14.7-14.699v-11.701z" fill="url(#b)"/><path d="m52.3 61.6c-6.1 0-9.7-3.199-11.399-5.1-.4-.4-.301-1 .1-1.4.4-.399 1-.3 1.4.101 1.399 1.699 4.599 4.399 9.899 4.399 1.601 0 3.101-.3 4.5-.8.5-.2 1.101.101 1.3.601.2.5-.1 1.1-.6 1.3-1.7.599-3.4.899-5.2.899z" fill="#faaf42"/><path d="m36.3 57.4c-4.4 0-8.2-1.4-9.8-3.7-.3-.5-.2-1.101.3-1.4s1.1-.2 1.4.3c1.1 1.7 4.5 2.801 8.1 2.801 3.601 0 7-1.101 8.101-2.801.299-.5.899-.6 1.399-.2.5.3.6.9.2 1.4-1.5 2.1-5.3 3.6-9.7 3.6z"/><path d="m53.8 17.9h15.5v9.4h-15.5z" fill="#faaf42"/><path d="m69.4 28.3h-15.6c-.6 0-1-.4-1-1v-9.4c0-.6.4-1 1-1h15.5c.601 0 1 .4 1 1v9.4c.1.6-.4 1-.9 1zm-14.6-2h13.5v-7.4h-13.5z"/><path d="m2.7 17.9h15.5v9.4h-15.5z" fill="#faaf42"/><path d="m18.2 28.3h-15.5c-.6 0-1-.4-1-1v-9.4c0-.6.4-1 1-1h15.5c.6 0 1 .4 1 1v9.4c0 .6-.4 1-1 1zm-14.5-2h13.5v-7.4h-13.5z"/></svg>