<svg id="Layer_1" data-name="Layer 1" xmlns="http://www.w3.org/2000/svg" viewBox="0 0 72 72"><defs><style>.cls-1{fill:#d1d3d4}.cls-2,.cls-4,.cls-8,.cls-9{fill:none}.cls-10,.cls-2,.cls-4,.cls-8,.cls-9{stroke:#231f20}.cls-10,.cls-2,.cls-8,.cls-9{stroke-linecap:round;stroke-linejoin:round}.cls-2{stroke-width:3.78px}.cls-3{fill:#00a14b}.cls-4{stroke-miterlimit:10}.cls-10,.cls-4,.cls-8{stroke-width:4px}.cls-5{fill:#007a3e}.cls-10,.cls-6{fill:#eec42c}.cls-7{fill:#a77815}.cls-9{stroke-width:2px}.cls-11{fill:#231f20}</style></defs><title>Team_Mascots</title><path class="cls-1" d="M54.78 43.3L18.1 44.47c-6 0-11.69 4.32-11.69 9.78s5.72 10 11.69 10a11.81 11.81 0 0 0 1.68-.13 7.6 7.6 0 0 0 6.34 3.26A7.86 7.86 0 0 0 30.61 66a5.36 5.36 0 0 0 9.67-.09 7.94 7.94 0 0 0 3.69.9 7.45 7.45 0 0 0 7-4.39 11.64 11.64 0 0 0 3.85.66c6 0 10.8-4.43 10.8-9.89s-4.87-9.89-10.84-9.89z"/><path class="cls-2" d="M54.78 43.3l-36.65.76c-6 0-11.72 4.73-11.72 10.19s5.72 10 11.69 10a11.81 11.81 0 0 0 1.68-.13 7.6 7.6 0 0 0 6.34 3.26A7.86 7.86 0 0 0 30.61 66a5.36 5.36 0 0 0 9.67-.09 7.94 7.94 0 0 0 3.69.9 7.45 7.45 0 0 0 7-4.39 11.64 11.64 0 0 0 3.85.66c6 0 10.8-4.43 10.8-9.89s-4.87-9.89-10.84-9.89z"/><path class="cls-3" d="M35.9 4.72S21 18.89 26.09 48.09h19.48s5.48-22.96-9.67-43.37z"/><path class="cls-4" d="M35.9 4.72S21 18.89 26.09 48.09h19.48s5.48-22.96-9.67-43.37z"/><path class="cls-5" d="M35.39 8.32c-5.29 5.88-13.72 19-9 39.77h4.2c-1.81-19.2 1.74-32.39 4.8-39.77zM35.39 8.33c6.7 16.39 6.11 32.78 5.43 39.76h4.4s6.61-20.35-9.83-39.76z"/><path class="cls-6" d="M28.4 17.11a20 20 0 0 0 7 1.54c3.5 0 7.35-2.56 7.35-2.56l1.13 4.23s-4.3 2.1-7.74 2.1a53.61 53.61 0 0 1-9.08-1.29z"/><path class="cls-4" d="M35.9 4.72S21 18.89 26.09 48.09h19.48s5.48-22.96-9.67-43.37z"/><path class="cls-6" d="M16.46 58.12C8.22 37.42 25 29.35 25 29.35v16.22c-7.3 2.58-8.54 12.55-8.54 12.55z"/><path class="cls-7" d="M25 35.49v10.08c-5.13 1.81-7.27 7.25-8.09 10.35-1.85-11.33 4.45-17.75 8.09-20.43z"/><path class="cls-8" d="M16.46 58.12C8.22 37.42 25 29.35 25 29.35v16.22c-7.3 2.58-8.54 12.55-8.54 12.55z"/><path class="cls-6" d="M46.54 45.57V29.35s16.8 8.07 8.56 28.77c0 0-1.24-9.97-8.56-12.55z"/><path class="cls-7" d="M46.54 35.49v10.08c5.13 1.81 7.27 7.25 8.09 10.35 1.85-11.33-4.45-17.75-8.09-20.43z"/><path class="cls-9" d="M27.23 20.54s9.11 4.66 16.49-.71M28.4 17.11a15.49 15.49 0 0 0 14.35-.49"/><path class="cls-10" d="M35.42 29.23s-8.19 15.85-.28 30.34h1s7.11-17.49-.72-30.34z"/><circle class="cls-11" cx="30.84" cy="26.4" r="1.66"/><circle class="cls-11" cx="40.18" cy="26.4" r="1.66"/><path class="cls-8" d="M46.54 45.57V29.35s16.8 8.07 8.56 28.77c0 0-1.24-9.97-8.56-12.55z"/><path class="cls-9" d="M26.68 52.52l-2.35 7.32M45.77 52.03l.96 7.81M41.27 57.48l.58 4.23M29.18 58.12l-1.09 4.47"/></svg>